<?xml version="1.0" encoding="UTF-8"?>
<svg version="1.1" xmlns="http://www.w3.org/2000/svg" width="1024" height="1024">
<path d="M0 0 C7.26 0 14.52 0 22 0 C22 0.66 22 1.32 22 2 C22.72703125 1.97679688 23.4540625 1.95359375 24.203125 1.9296875 C31.6891301 1.79532331 38.66160471 2.54273001 46 4 C46 4.66 46 5.32 46 6 C48.97 6.33 51.94 6.66 55 7 C55 7.66 55 8.32 55 9 C55.763125 9.144375 56.52625 9.28875 57.3125 9.4375 C60 10 60 10 63 11 C63 11.66 63 12.32 63 13 C64.98 13.33 66.96 13.66 69 14 C69 14.66 69 15.32 69 16 C69.515625 16.0825 70.03125 16.165 70.5625 16.25 C74.04455732 17.32140225 76.87200885 19.13523605 80 21 C80 21.66 80 22.32 80 23 C81.32 23.33 82.64 23.66 84 24 C84 24.66 84 25.32 84 26 C84.9075 26.226875 85.815 26.45375 86.75 26.6875 C90.55554217 28.22435357 91.58219882 29.75107966 94 33 C95.485 34.2375 95.485 34.2375 97 35.5 C99.80831485 37.84026238 101.81705309 40.08940412 104 43 C104.7425 43.86625 105.485 44.7325 106.25 45.625 C108 48 108 48 108 51 C108.99 51.33 109.98 51.66 111 52 C111 52.99 111 53.98 111 55 C111.66 55 112.32 55 113 55 C114.4606285 57.64738916 115 58.89448334 115 62 C115.66 62 116.32 62 117 62 C120.26357459 66.21545052 121.05197782 70.88068021 122 76 C122.66 76 123.32 76 124 76 C124.33 78.97 124.66 81.94 125 85 C125.66 85 126.32 85 127 85 C128.2982126 90.76081841 129.25706972 96.08739655 129 102 C129.66 102 130.32 102 131 102 C132.78431389 117.67647207 134.43599422 136.97107481 129 152 C128.66734256 153.78803376 128.35711467 155.58030563 128.0625 157.375 C127.23238244 162.22952746 125.88566612 166.45725889 124 171 C123.34 171 122.68 171 122 171 C121.855625 172.11375 121.71125 173.2275 121.5625 174.375 C121 178 121 178 120 180 C119.34 180 118.68 180 118 180 C117.67 181.98 117.34 183.96 117 186 C116.34 186 115.68 186 115 186 C114.8453125 187.423125 114.8453125 187.423125 114.6875 188.875 C114 192 114 192 111 194 C110.67 194.99 110.34 195.98 110 197 C109.34 197 108.68 197 108 197 C107.731875 197.556875 107.46375 198.11375 107.1875 198.6875 C103.28571429 206.28571429 103.28571429 206.28571429 100 209 C99.34 209 98.68 209 98 209 C97.34 210.65 96.68 212.3 96 214 C95.34 214 94.68 214 94 214 C93.67 214.99 93.34 215.98 93 217 C91.0625 219.1875 91.0625 219.1875 89 221 C88.34 221 87.68 221 87 221 C86.67 221.99 86.34 222.98 86 224 C84.0625 226.1875 84.0625 226.1875 82 228 C81.34 228 80.68 228 80 228 C79.67 228.99 79.34 229.98 79 231 C77.34997172 232.35386936 75.6825613 233.68678142 74 235 C73.34 235.99 72.68 236.98 72 238 C71.34 238 70.68 238 70 238 C69.67 238.99 69.34 239.98 69 241 C66.99878825 243.36506843 66.03200339 243.9893322 63 245 C60.57361806 247.03816083 59.29010992 249.12206249 58 252 C57.34 252 56.68 252 56 252 C55.67 252.99 55.34 253.98 55 255 C53.0625 257.1875 53.0625 257.1875 51 259 C50.34 259 49.68 259 49 259 C48.67 259.99 48.34 260.98 48 262 C45.99878825 264.36506843 45.03200339 264.9893322 42 266 C40.66104368 267.66215268 39.32869858 269.32963607 38 271 C36.95605595 271.89705745 35.89282812 272.77210938 34.8125 273.625 C31.79133392 275.75800103 31.79133392 275.75800103 31 279 C29.125 281.1875 29.125 281.1875 27 283 C26.01 283 25.02 283 24 283 C24 283.66 24 284.32 24 285 C22.56494383 286.20144238 21.12566998 287.39840399 19.66015625 288.5625 C17.98324568 290.01450727 16.63951453 291.5245133 15.25 293.25 C13 296 13 296 11 297 C10.67 297.99 10.34 298.98 10 300 C8.34997172 301.35386936 6.6825613 302.68678142 5 304 C4.34 304.99 3.68 305.98 3 307 C2.01 307 1.02 307 0 307 C0 307.66 0 308.32 0 309 C-1.44067685 310.20614806 -2.88559534 311.40773399 -4.35546875 312.578125 C-6.26038608 314.14733488 -6.26038608 314.14733488 -8.5 317 C-11.08705336 320.10446403 -13.89721334 322.42534724 -17 325 C-17.66 325.825 -18.32 326.65 -19 327.5 C-21.36043197 330.45053996 -24.10151737 332.58459781 -27 335 C-28.34736973 336.65533995 -29.68334336 338.32012773 -31 340 C-31.99 340.66 -32.98 341.32 -34 342 C-34.33 342.99 -34.66 343.98 -35 345 C-35.66 345 -36.32 345 -37 345 C-37.33 345.99 -37.66 346.98 -38 348 C-40.0625 348.6875 -40.0625 348.6875 -42 349 C-42 349.66 -42 350.32 -42 351 C-43.46190139 352.22932617 -44.92797383 353.45429691 -46.421875 354.64453125 C-48.18818536 356.07692638 -48.18818536 356.07692638 -50 358.5 C-52.36043197 361.45053996 -55.10151737 363.58459781 -58 366 C-58.66 366.825 -59.32 367.65 -60 368.5 C-62 371 -62 371 -64.9375 373.4375 C-68.0731044 375.90639631 -68.0731044 375.90639631 -70.5 379 C-73.08705336 382.10446403 -75.89721334 384.42534724 -79 387 C-79.66 387.825 -80.32 388.65 -81 389.5 C-83 392 -83 392 -85.9375 394.4375 C-89.06213995 397.05199465 -91.40463683 399.87225464 -94 403 C-95.66666667 404.33333333 -97.33333333 405.66666667 -99 407 C-99.804375 407.969375 -100.60875 408.93875 -101.4375 409.9375 C-104.05199465 413.06213995 -106.87225464 415.40463683 -110 418 C-110.66 418.825 -111.32 419.65 -112 420.5 C-114 423 -114 423 -116.9375 425.4375 C-120.06213995 428.05199465 -122.40463683 430.87225464 -125 434 C-126.66666667 435.33333333 -128.33333333 436.66666667 -130 438 C-130.804375 438.969375 -131.60875 439.93875 -132.4375 440.9375 C-135.10713456 444.12803886 -137.76950982 446.40156224 -141 449 C-143.40827556 451.15914361 -143.9411903 451.82357089 -145 455 C-145.99 455.33 -146.98 455.66 -148 456 C-148.33 456.66 -148.66 457.32 -149 458 C-149.66 458 -150.32 458 -151 458 C-151.1546875 458.8971875 -151.1546875 458.8971875 -151.3125 459.8125 C-152.10636936 462.33844795 -152.95572409 463.34885407 -155 465 C-155.99 465.33 -156.98 465.66 -158 466 C-159.23997624 467.46839291 -160.47654673 468.940351 -161.671875 470.4453125 C-163.53425641 472.62539426 -165.72702294 474.26535961 -168 476 C-170.38479195 478.11981507 -171.69385851 480.08629975 -173 483 C-173.66 483 -174.32 483 -175 483 C-175 483.66 -175 484.32 -175 485 C-175.5775 485.226875 -176.155 485.45375 -176.75 485.6875 C-179.58434736 487.3408693 -180.96762189 489.42963944 -183 492 C-184.4540625 493.2065625 -184.4540625 493.2065625 -185.9375 494.4375 C-189.06213995 497.05199465 -191.40463683 499.87225464 -194 503 C-195.66666667 504.33333333 -197.33333333 505.66666667 -199 507 C-199.804375 507.969375 -200.60875 508.93875 -201.4375 509.9375 C-204.05199465 513.06213995 -206.87225464 515.40463683 -210 518 C-210.66 518.825 -211.32 519.65 -212 520.5 C-214 523 -214 523 -216.9375 525.4375 C-220.06213995 528.05199465 -222.40463683 530.87225464 -225 534 C-226.66666667 535.33333333 -228.33333333 536.66666667 -230 538 C-230.804375 538.969375 -231.60875 539.93875 -232.4375 540.9375 C-235.05199465 544.06213995 -237.87225464 546.40463683 -241 549 C-241.66 549.825 -242.32 550.65 -243 551.5 C-245 554 -245 554 -247.9375 556.4375 C-251.12803886 559.10713456 -253.40156224 561.76950982 -256 565 C-257.6875 566.875 -257.6875 566.875 -259 568 C-259.66 568 -260.32 568 -261 568 C-261.0825 568.5775 -261.165 569.155 -261.25 569.75 C-262.225982 572.67794601 -263.63511223 574.05244537 -266 576 C-266.99 576 -267.98 576 -269 576 C-269 576.66 -269 577.32 -269 578 C-270.43709507 579.20314936 -271.878186 580.40200913 -273.34375 581.5703125 C-275.91114995 583.78651151 -277.87570814 586.3589885 -280 589 C-281.6875 590.875 -281.6875 590.875 -283 592 C-283.66 592 -284.32 592 -285 592 C-285.66 593.65 -286.32 595.3 -287 597 C-287.66 597 -288.32 597 -289 597 C-289.33 597.99 -289.66 598.98 -290 600 C-290.99 600.33 -291.98 600.66 -293 601 C-294.33895632 602.66215268 -295.67130142 604.32963607 -297 606 C-299 607.66666667 -301 609.33333333 -303 611 C-303.66 611.825 -304.32 612.65 -305 613.5 C-307 616 -307 616 -309.9375 618.4375 C-313.0731044 620.90639631 -313.0731044 620.90639631 -315.5 624 C-318.14072781 627.16887337 -320.79538963 629.42237862 -324 632 C-326.40827556 634.15914361 -326.9411903 634.82357089 -328 638 C-329.65002828 639.35386936 -331.3174387 640.68678142 -333 642 C-333.66 642.99 -334.32 643.98 -335 645 C-335.99 645 -336.98 645 -338 645 C-338 645.66 -338 646.32 -338 647 C-339.97599278 648.71252707 -341.96340951 650.3644772 -344 652 C-346.38770863 654.13188271 -347.68867026 656.07472597 -349 659 C-349.66 659 -350.32 659 -351 659 C-351.33 659.99 -351.66 660.98 -352 662 C-353.9375 664.1875 -353.9375 664.1875 -356 666 C-356.66 666 -357.32 666 -358 666 C-358 666.66 -358 667.32 -358 668 C-358.5775 668.226875 -359.155 668.45375 -359.75 668.6875 C-362.58434736 670.3408693 -363.96762189 672.42963944 -366 675 C-368 676.66666667 -370 678.33333333 -372 680 C-372.66 680.825 -373.32 681.65 -374 682.5 C-376 685 -376 685 -378.9375 687.4375 C-382.0731044 689.90639631 -382.0731044 689.90639631 -384.5 693 C-387.08705336 696.10446403 -389.89721334 698.42534724 -393 701 C-393.66 701.825 -394.32 702.65 -395 703.5 C-397.36043197 706.45053996 -400.10151737 708.58459781 -403 711 C-403.66 711.825 -404.32 712.65 -405 713.5 C-407 716 -407 716 -409.9375 718.4375 C-413.0731044 720.90639631 -413.0731044 720.90639631 -415.5 724 C-418.08705336 727.10446403 -420.89721334 729.42534724 -424 732 C-424.66 732.825 -425.32 733.65 -426 734.5 C-428.36043197 737.45053996 -431.10151737 739.58459781 -434 742 C-434.66 742.825 -435.32 743.65 -436 744.5 C-438 747 -438 747 -440.9375 749.4375 C-444.0731044 751.90639631 -444.0731044 751.90639631 -446.5 755 C-449.08705336 758.10446403 -451.89721334 760.42534724 -455 763 C-455.66 763.825 -456.32 764.65 -457 765.5 C-459 768 -459 768 -461.9375 770.4375 C-465.06213995 773.05199465 -467.40463683 775.87225464 -470 779 C-471.66666667 780.33333333 -473.33333333 781.66666667 -475 783 C-476.74290028 784.94400416 -478.35727604 786.96820984 -480 789 C-481.6875 790.875 -481.6875 790.875 -483 792 C-483.66 792 -484.32 792 -485 792 C-485.66 793.65 -486.32 795.3 -487 797 C-487.66 797 -488.32 797 -489 797 C-489.33 797.99 -489.66 798.98 -490 800 C-491.9375 802.1875 -491.9375 802.1875 -494 804 C-494.66 804 -495.32 804 -496 804 C-496 804.66 -496 805.32 -496 806 C-496.5775 806.226875 -497.155 806.45375 -497.75 806.6875 C-500.55338976 808.32281069 -502.00442154 810.47226728 -504 813 C-504.66 813 -505.32 813 -506 813 C-506.0825 813.5775 -506.165 814.155 -506.25 814.75 C-507.21797787 817.6539336 -508.68694284 819.03740604 -511 821 C-511.66 821 -512.32 821 -513 821 C-513.33 821.99 -513.66 822.98 -514 824 C-516.0625 824.6875 -516.0625 824.6875 -518 825 C-518 825.66 -518 826.32 -518 827 C-519.97601594 828.71254715 -521.96390232 830.36385008 -524 832 C-526.40827556 834.15914361 -526.9411903 834.82357089 -528 838 C-529.66215268 839.33895632 -531.32963607 840.67130142 -533 842 C-533.89705745 843.04394405 -534.77210938 844.10717188 -535.625 845.1875 C-538 848 -538 848 -541 849 C-542.37073786 850.63604196 -543.70055256 852.30678061 -545 854 C-547.125 856.3125 -547.125 856.3125 -549 858 C-549.66 858 -550.32 858 -551 858 C-551.0825 858.5775 -551.165 859.155 -551.25 859.75 C-552.21797787 862.6539336 -553.68694284 864.03740604 -556 866 C-556.66 866 -557.32 866 -558 866 C-558.33 866.99 -558.66 867.98 -559 869 C-560.9375 871.1875 -560.9375 871.1875 -563 873 C-563.66 873 -564.32 873 -565 873 C-565.33 873.99 -565.66 874.98 -566 876 C-567.6396721 877.36639342 -569.31110128 878.6949419 -571 880 C-573.41550122 882.35658655 -575.75799791 884.72774765 -578 887.25 C-580.33052916 889.28921301 -581.95998621 889.66222069 -585 890 C-585 890.66 -585 891.32 -585 892 C-586.53836708 892.65365399 -588.08088766 893.29753603 -589.625 893.9375 C-590.48351562 894.29714844 -591.34203125 894.65679688 -592.2265625 895.02734375 C-601.24331972 898.18955861 -611.69521063 897.7311236 -621 896 C-621 895.34 -621 894.68 -621 894 C-622.093125 893.855625 -623.18625 893.71125 -624.3125 893.5625 C-628 893 -628 893 -631 892 C-631 891.34 -631 890.68 -631 890 C-632.32 889.67 -633.64 889.34 -635 889 C-635 888.34 -635 887.68 -635 887 C-635.8353125 886.87625 -635.8353125 886.87625 -636.6875 886.75 C-639.79888018 885.74090373 -641.6312518 884.24407724 -644 882 C-644.33 881.13375 -644.66 880.2675 -645 879.375 C-645.33 878.59125 -645.66 877.8075 -646 877 C-647.6635479 876.32558869 -649.33066942 875.6599679 -651 875 C-652.27991763 873.52809472 -653.55712122 872.05109942 -654.75 870.5078125 C-656.08565269 868.79312922 -656.08565269 868.79312922 -658.5 867 C-661 865 -661 865 -663.4375 862.0625 C-665.61047919 859.46552487 -667.76234393 857.5116925 -670.39453125 855.4140625 C-672.9649049 853.15013242 -675.10694128 850.53654693 -677.3203125 847.9296875 C-678.79505487 846.23544859 -680.31442432 844.67471633 -681.9375 843.125 C-684 841 -684 841 -684 839 C-684.721875 838.79375 -685.44375 838.5875 -686.1875 838.375 C-689.22624411 836.88939177 -690.70269249 835.15651659 -692.75 832.5078125 C-694.08565269 830.79312922 -694.08565269 830.79312922 -696.5 829 C-699.45868936 826.63304851 -701.60681632 823.93165 -704 821 C-706.17824079 818.76590688 -708.39199876 816.58062678 -710.6484375 814.42578125 C-712.13386989 812.98567896 -713.57067488 811.49580536 -715 810 C-715 809.34 -715 808.68 -715 808 C-715.88993652 807.59575806 -715.88993652 807.59575806 -716.79785156 807.18334961 C-720.35925406 805.26958931 -722.91813373 802.40992597 -725.75 799.5625 C-726.35199219 798.97662109 -726.95398438 798.39074219 -727.57421875 797.78710938 C-728.14269531 797.21927734 -728.71117187 796.65144531 -729.296875 796.06640625 C-730.07562988 795.2921228 -730.07562988 795.2921228 -730.87011719 794.50219727 C-732 793 -732 793 -732 790 C-732.99 789.67 -733.98 789.34 -735 789 C-735 788.34 -735 787.68 -735 787 C-735.78375 786.773125 -736.5675 786.54625 -737.375 786.3125 C-740.68762108 784.65618946 -740.74014357 783.35961714 -742 780 C-744.01735205 778.65589738 -744.01735205 778.65589738 -746 778 C-746 777.34 -746 776.68 -746 776 C-746.99 775.67 -747.98 775.34 -749 775 C-749 774.34 -749 773.68 -749 773 C-749.99 773 -750.98 773 -752 773 C-752 772.01 -752 771.02 -752 770 C-753.32 769.34 -754.64 768.68 -756 768 C-756 767.34 -756 766.68 -756 766 C-756.99 765.67 -757.98 765.34 -759 765 C-759 764.34 -759 763.68 -759 763 C-760.32 762.34 -761.64 761.68 -763 761 C-763 760.34 -763 759.68 -763 759 C-763.99 758.67 -764.98 758.34 -766 758 C-766 757.34 -766 756.68 -766 756 C-767.32 755.34 -768.64 754.68 -770 754 C-770 753.34 -770 752.68 -770 752 C-770.99 751.67 -771.98 751.34 -773 751 C-773 750.34 -773 749.68 -773 749 C-774.32 748.34 -775.64 747.68 -777 747 C-777 746.34 -777 745.68 -777 745 C-777.99 744.67 -778.98 744.34 -780 744 C-780 743.34 -780 742.68 -780 742 C-780.99 741.67 -781.98 741.34 -783 741 C-785.1875 739.0625 -785.1875 739.0625 -787 737 C-787 736.34 -787 735.68 -787 735 C-787.99 734.67 -788.98 734.34 -790 734 C-790 733.34 -790 732.68 -790 732 C-791.32 731.34 -792.64 730.68 -794 730 C-794 729.34 -794 728.68 -794 728 C-794.99 727.67 -795.98 727.34 -797 727 C-797 726.34 -797 725.68 -797 725 C-798.32 724.34 -799.64 723.68 -801 723 C-801 722.34 -801 721.68 -801 721 C-801.99 720.67 -802.98 720.34 -804 720 C-804 719.34 -804 718.68 -804 718 C-805.32 717.34 -806.64 716.68 -808 716 C-808 715.34 -808 714.68 -808 714 C-808.99 713.67 -809.98 713.34 -811 713 C-811 712.34 -811 711.68 -811 711 C-812.32 710.34 -813.64 709.68 -815 709 C-815 708.34 -815 707.68 -815 707 C-815.99 706.67 -816.98 706.34 -818 706 C-818 705.34 -818 704.68 -818 704 C-818.99 703.67 -819.98 703.34 -821 703 C-821 702.34 -821 701.68 -821 701 C-822.32 700.34 -823.64 699.68 -825 699 C-825 698.34 -825 697.68 -825 697 C-825.99 696.67 -826.98 696.34 -828 696 C-828 695.34 -828 694.68 -828 694 C-829.32 693.34 -830.64 692.68 -832 692 C-832 691.34 -832 690.68 -832 690 C-832.99 689.67 -833.98 689.34 -835 689 C-835 688.34 -835 687.68 -835 687 C-836.32 686.34 -837.64 685.68 -839 685 C-839 684.34 -839 683.68 -839 683 C-839.99 682.67 -840.98 682.34 -842 682 C-842 681.34 -842 680.68 -842 680 C-843.32 679.34 -844.64 678.68 -846 678 C-846 677.34 -846 676.68 -846 676 C-846.99 675.67 -847.98 675.34 -849 675 C-849 674.34 -849 673.68 -849 673 C-849.99 672.67 -850.98 672.34 -852 672 C-852.33 671.01 -852.66 670.02 -853 669 C-853.7734375 668.2575 -853.7734375 668.2575 -854.5625 667.5 C-856 666 -856 666 -856 663 C-856.99 662.67 -857.98 662.34 -859 662 C-859 661.01 -859 660.02 -859 659 C-859.99 658.67 -860.98 658.34 -862 658 C-863.16796875 656.4765625 -863.16796875 656.4765625 -864.1875 654.625 C-864.70376953 653.71621094 -864.70376953 653.71621094 -865.23046875 652.7890625 C-866 651 -866 651 -866 648 C-866.66 648 -867.32 648 -868 648 C-868.66 644.7 -869.32 641.4 -870 638 C-870.66 638 -871.32 638 -872 638 C-875.26994817 628.84414513 -876.70948717 620.68860296 -877 611 C-877.66 611 -878.32 611 -879 611 C-880.94090701 596.20058408 -880.54006321 580.82310844 -879 566 C-878.34 566 -877.68 566 -877 566 C-877.061875 564.5459375 -877.061875 564.5459375 -877.125 563.0625 C-877.10957304 555.39530276 -874.53666298 548.1533896 -872 541 C-871.34 541 -870.68 541 -870 541 C-869.855625 540.05125 -869.71125 539.1025 -869.5625 538.125 C-869 535 -869 535 -868 533 C-867.34 533 -866.68 533 -866 533 C-866 531.35 -866 529.7 -866 528 C-865.01 527.67 -864.02 527.34 -863 527 C-862.67 525.02 -862.34 523.04 -862 521 C-861.01 520.67 -860.02 520.34 -859 520 C-858.26676204 517.98491642 -858.26676204 517.98491642 -858 516 C-857.34 516 -856.68 516 -856 516 C-855.87625 515.195625 -855.7525 514.39125 -855.625 513.5625 C-855.41875 512.716875 -855.2125 511.87125 -855 511 C-854.34 510.67 -853.68 510.34 -853 510 C-851.86649466 507.98330173 -851.86649466 507.98330173 -851 506 C-850.34 506 -849.68 506 -849 506 C-848.67 505.01 -848.34 504.02 -848 503 C-846.0625 500.8125 -846.0625 500.8125 -844 499 C-843.34 499 -842.68 499 -842 499 C-841.67 498.01 -841.34 497.02 -841 496 C-840.34 496 -839.68 496 -839 496 C-838.34 494.68 -837.68 493.36 -837 492 C-836.34 492 -835.68 492 -835 492 C-834.67 491.01 -834.34 490.02 -834 489 C-833.01 489 -832.02 489 -831 489 C-830.67 488.01 -830.34 487.02 -830 486 C-828.35 485.67 -826.7 485.34 -825 485 C-824.67 484.01 -824.34 483.02 -824 482 C-823.01 482 -822.02 482 -821 482 C-820.67 481.01 -820.34 480.02 -820 479 C-818.02 478.67 -816.04 478.34 -814 478 C-814 477.34 -814 476.68 -814 476 C-812.02 475.67 -810.04 475.34 -808 475 C-808 474.34 -808 473.68 -808 473 C-805.79608318 472.26536106 -803.59201777 471.53126491 -801.38671875 470.80078125 C-799.47919264 470.16077658 -797.58150245 469.49148201 -795.6875 468.8125 C-793 468 -793 468 -789 468 C-789 467.34 -789 466.68 -789 466 C-766.70701019 461.81539409 -745.31300756 462.05826996 -723 466 C-723 466.66 -723 467.32 -723 468 C-720.03 468.33 -717.06 468.66 -714 469 C-714 469.66 -714 470.32 -714 471 C-712.741875 471.144375 -711.48375 471.28875 -710.1875 471.4375 C-707.57332877 471.73748686 -705.52560108 472.15813297 -703 473 C-703 473.66 -703 474.32 -703 475 C-701.02 475.33 -699.04 475.66 -697 476 C-697 476.66 -697 477.32 -697 478 C-696.401875 478.144375 -695.80375 478.28875 -695.1875 478.4375 C-693.43849596 478.8872439 -691.71322977 479.42892341 -690 480 C-690 480.66 -690 481.32 -690 482 C-688.68 482.33 -687.36 482.66 -686 483 C-686 483.66 -686 484.32 -686 485 C-685.38125 485.144375 -684.7625 485.28875 -684.125 485.4375 C-682 486 -682 486 -680 487 C-680 487.66 -680 488.32 -680 489 C-679.4225 489.0825 -678.845 489.165 -678.25 489.25 C-675.3460664 490.21797787 -673.96259396 491.68694284 -672 494 C-672 494.66 -672 495.32 -672 496 C-671.01 496.33 -670.02 496.66 -669 497 C-667.66104368 498.66215268 -666.32869858 500.32963607 -665 502 C-664.030625 502.804375 -663.06125 503.60875 -662.0625 504.4375 C-658.93513226 507.05427709 -656.60469194 509.87436967 -654 513 C-652.00334402 514.67067133 -650.00348966 516.33752986 -648 518 C-646.65263027 519.65533995 -645.31665664 521.32012773 -644 523 C-643.01 523.66 -642.02 524.32 -641 525 C-641 525.66 -641 526.32 -641 527 C-640.01 527.33 -639.02 527.66 -638 528 C-636.66104368 529.66215268 -635.32869858 531.32963607 -634 533 C-633.030625 533.804375 -632.06125 534.60875 -631.0625 535.4375 C-627.93513226 538.05427709 -625.60469194 540.87436967 -623 544 C-621.00334402 545.67067133 -619.00348966 547.33752986 -617 549 C-615.65263027 550.65533995 -614.31665664 552.32012773 -613 554 C-612.01 554.66 -611.02 555.32 -610 556 C-610 556.66 -610 557.32 -610 558 C-609.01 558.33 -608.02 558.66 -607 559 C-605.64172029 560.64639965 -604.30745749 562.31295807 -603 564 C-602.34 564.33 -601.68 564.66 -601 565 C-600.7628125 564.27530518 -600.525625 563.55061035 -600.28125 562.80395508 C-598.79448465 559.55023936 -597.03067778 557.65813673 -594.5 555.13671875 C-593.613125 554.25048828 -592.72625 553.36425781 -591.8125 552.45117188 C-590.4203125 551.0831543 -590.4203125 551.0831543 -589 549.6875 C-588.071875 548.75615234 -587.14375 547.82480469 -586.1875 546.86523438 C-579.26694139 540 -579.26694139 540 -577 540 C-576.5978125 539.1028125 -576.5978125 539.1028125 -576.1875 538.1875 C-575.00082594 536.00152146 -573.90400887 534.58667406 -572 533 C-571.34 533 -570.68 533 -570 533 C-569.7628125 532.43829102 -569.525625 531.87658203 -569.28125 531.29785156 C-567.70680643 528.47417342 -565.78315455 526.52385158 -563.5 524.234375 C-562.613125 523.34492187 -561.72625 522.45546875 -560.8125 521.5390625 C-559.884375 520.61867188 -558.95625 519.69828125 -558 518.75 C-557.071875 517.81414063 -556.14375 516.87828125 -555.1875 515.9140625 C-554.300625 515.02976562 -553.41375 514.14546875 -552.5 513.234375 C-551.6853125 512.42194336 -550.870625 511.60951172 -550.03125 510.77246094 C-548 509 -548 509 -546 509 C-545.731875 508.401875 -545.46375 507.80375 -545.1875 507.1875 C-544.00082594 505.00152146 -542.90400887 503.58667406 -541 502 C-540.34 502 -539.68 502 -539 502 C-538.731875 501.401875 -538.46375 500.80375 -538.1875 500.1875 C-537.00082594 498.00152146 -535.90400887 496.58667406 -534 495 C-533.34 495 -532.68 495 -532 495 C-531.75894531 494.43152344 -531.51789063 493.86304688 -531.26953125 493.27734375 C-529.75031912 490.55211092 -527.92581019 488.73309661 -525.6875 486.5625 C-524.88183594 485.77488281 -524.07617188 484.98726562 -523.24609375 484.17578125 C-522.13427734 483.09876953 -522.13427734 483.09876953 -521 482 C-520.0925 481.0925 -519.185 480.185 -518.25 479.25 C-517.5075 478.5075 -516.765 477.765 -516 477 C-515.13375 476.0925 -514.2675 475.185 -513.375 474.25 C-511 472 -511 472 -508 471 C-507.29848848 469.6846659 -506.63474075 468.34882408 -506 467 C-504.5 465.25 -504.5 465.25 -503 464 C-502.34 464 -501.68 464 -501 464 C-500.835 463.319375 -500.67 462.63875 -500.5 461.9375 C-498.69199469 458.39682293 -496.5316027 456.68744708 -493.5 454.1796875 C-489.80789338 450.96063204 -486.43158971 447.44105322 -483.03759766 443.91186523 C-481.72765269 442.57182867 -480.36750306 441.28124518 -479 440 C-478.34 440 -477.68 440 -477 440 C-476.6596875 438.824375 -476.6596875 438.824375 -476.3125 437.625 C-474.65618946 434.31237892 -473.35961714 434.25985643 -470 433 C-468.83333333 431.08333333 -468.83333333 431.08333333 -468 429 C-466.5 427.25 -466.5 427.25 -465 426 C-464.34 426 -463.68 426 -463 426 C-462.73123047 425.40670898 -462.46246094 424.81341797 -462.18554688 424.20214844 C-460.99709268 421.99459967 -459.79257611 420.53457118 -458.03125 418.765625 C-457.46019531 418.19199219 -456.88914062 417.61835938 -456.30078125 417.02734375 C-455.70652344 416.44082031 -455.11226563 415.85429687 -454.5 415.25 C-453.90574219 414.64800781 -453.31148438 414.04601562 -452.69921875 413.42578125 C-451.84263672 412.57306641 -451.84263672 412.57306641 -450.96875 411.703125 C-450.44732422 411.18395508 -449.92589844 410.66478516 -449.38867188 410.12988281 C-448 409 -448 409 -446 409 C-445.731875 408.401875 -445.46375 407.80375 -445.1875 407.1875 C-444.00082594 405.00152146 -442.90400887 403.58667406 -441 402 C-440.34 402 -439.68 402 -439 402 C-438.731875 401.401875 -438.46375 400.80375 -438.1875 400.1875 C-437.00082594 398.00152146 -435.90400887 396.58667406 -434 395 C-433.34 395 -432.68 395 -432 395 C-431.64421875 394.15743652 -431.64421875 394.15743652 -431.28125 393.29785156 C-429.70680643 390.47417342 -427.78315455 388.52385158 -425.5 386.234375 C-424.613125 385.34492188 -423.72625 384.45546875 -422.8125 383.5390625 C-421.884375 382.61867188 -420.95625 381.69828125 -420 380.75 C-419.071875 379.81414062 -418.14375 378.87828125 -417.1875 377.9140625 C-416.300625 377.02976562 -415.41375 376.14546875 -414.5 375.234375 C-413.6853125 374.42194336 -412.870625 373.60951172 -412.03125 372.77246094 C-410 371 -410 371 -408 371 C-407.731875 370.401875 -407.46375 369.80375 -407.1875 369.1875 C-406.00082594 367.00152146 -404.90400887 365.58667406 -403 364 C-402.34 364 -401.68 364 -401 364 C-400.64421875 363.15743652 -400.64421875 363.15743652 -400.28125 362.29785156 C-398.70680643 359.47417342 -396.78315455 357.52385158 -394.5 355.234375 C-393.613125 354.34492188 -392.72625 353.45546875 -391.8125 352.5390625 C-390.884375 351.61867188 -389.95625 350.69828125 -389 349.75 C-388.071875 348.81414062 -387.14375 347.87828125 -386.1875 346.9140625 C-385.300625 346.02976562 -384.41375 345.14546875 -383.5 344.234375 C-382.6853125 343.42194336 -381.870625 342.60951172 -381.03125 341.77246094 C-379 340 -379 340 -377 340 C-376.731875 339.401875 -376.46375 338.80375 -376.1875 338.1875 C-375.00082594 336.00152146 -373.90400887 334.58667406 -372 333 C-371.34 333 -370.68 333 -370 333 C-369.731875 332.401875 -369.46375 331.80375 -369.1875 331.1875 C-368.00082594 329.00152146 -366.90400887 327.58667406 -365 326 C-364.34 326 -363.68 326 -363 326 C-362.64421875 325.15743652 -362.64421875 325.15743652 -362.28125 324.29785156 C-360.70680643 321.47417342 -358.78315455 319.52385158 -356.5 317.234375 C-355.613125 316.34492188 -354.72625 315.45546875 -353.8125 314.5390625 C-352.884375 313.61867188 -351.95625 312.69828125 -351 311.75 C-349.6078125 310.34621094 -349.6078125 310.34621094 -348.1875 308.9140625 C-347.300625 308.02976562 -346.41375 307.14546875 -345.5 306.234375 C-344.6853125 305.42194336 -343.870625 304.60951172 -343.03125 303.77246094 C-341 302 -341 302 -339 302 C-338.731875 301.401875 -338.46375 300.80375 -338.1875 300.1875 C-337.00082594 298.00152146 -335.90400887 296.58667406 -334 295 C-333.34 295 -332.68 295 -332 295 C-331.64421875 294.15743652 -331.64421875 294.15743652 -331.28125 293.29785156 C-329.70680643 290.47417342 -327.78315455 288.52385158 -325.5 286.234375 C-324.613125 285.34492188 -323.72625 284.45546875 -322.8125 283.5390625 C-321.884375 282.61867188 -320.95625 281.69828125 -320 280.75 C-318.6078125 279.34621094 -318.6078125 279.34621094 -317.1875 277.9140625 C-316.300625 277.02976562 -315.41375 276.14546875 -314.5 275.234375 C-313.6853125 274.42194336 -312.870625 273.60951172 -312.03125 272.77246094 C-310 271 -310 271 -308 271 C-307.731875 270.401875 -307.46375 269.80375 -307.1875 269.1875 C-306.00082594 267.00152146 -304.90400887 265.58667406 -303 264 C-302.34 264 -301.68 264 -301 264 C-300.731875 263.401875 -300.46375 262.80375 -300.1875 262.1875 C-299.00082594 260.00152146 -297.90400887 258.58667406 -296 257 C-295.34 257 -294.68 257 -294 257 C-293.74331543 256.41734375 -293.48663086 255.8346875 -293.22216797 255.234375 C-291.88823854 252.79567702 -290.4241991 251.19621511 -288.4453125 249.25 C-287.74792969 248.5590625 -287.05054688 247.868125 -286.33203125 247.15625 C-285.60371094 246.4446875 -284.87539063 245.733125 -284.125 245 C-283.40441406 244.2884375 -282.68382812 243.576875 -281.94140625 242.84375 C-280.59359046 241.51330936 -279.24372408 240.18494043 -277.89111328 238.859375 C-276.52988557 237.52099258 -275.19813811 236.15238623 -273.88623047 234.765625 C-272 233 -272 233 -270 233 C-269.731875 232.401875 -269.46375 231.80375 -269.1875 231.1875 C-268.00082594 229.00152146 -266.90400887 227.58667406 -265 226 C-264.34 226 -263.68 226 -263 226 C-262.64421875 225.15743652 -262.64421875 225.15743652 -262.28125 224.29785156 C-260.70680643 221.47417342 -258.78315455 219.52385158 -256.5 217.234375 C-255.613125 216.34492188 -254.72625 215.45546875 -253.8125 214.5390625 C-252.4203125 213.15847656 -252.4203125 213.15847656 -251 211.75 C-249.6078125 210.34621094 -249.6078125 210.34621094 -248.1875 208.9140625 C-247.300625 208.02976562 -246.41375 207.14546875 -245.5 206.234375 C-244.6853125 205.42194336 -243.870625 204.60951172 -243.03125 203.77246094 C-241 202 -241 202 -239 202 C-238.731875 201.401875 -238.46375 200.80375 -238.1875 200.1875 C-237.00082594 198.00152146 -235.90400887 196.58667406 -234 195 C-233.34 195 -232.68 195 -232 195 C-231.731875 194.401875 -231.46375 193.80375 -231.1875 193.1875 C-230.00082594 191.00152146 -228.90400887 189.58667406 -227 188 C-226.34 188 -225.68 188 -225 188 C-224.73123047 187.40670898 -224.46246094 186.81341797 -224.18554688 186.20214844 C-222.99709268 183.99459967 -221.79257611 182.53457118 -220.03125 180.765625 C-219.17466797 179.90517578 -219.17466797 179.90517578 -218.30078125 179.02734375 C-217.40939453 178.14755859 -217.40939453 178.14755859 -216.5 177.25 C-215.60861328 176.34701172 -215.60861328 176.34701172 -214.69921875 175.42578125 C-213.84263672 174.57306641 -213.84263672 174.57306641 -212.96875 173.703125 C-212.44732422 173.18395508 -211.92589844 172.66478516 -211.38867188 172.12988281 C-210 171 -210 171 -208 171 C-207.731875 170.401875 -207.46375 169.80375 -207.1875 169.1875 C-206.00082594 167.00152146 -204.90400887 165.58667406 -203 164 C-202.34 164 -201.68 164 -201 164 C-200.731875 163.401875 -200.46375 162.80375 -200.1875 162.1875 C-199.00082594 160.00152146 -197.90400887 158.58667406 -196 157 C-195.34 157 -194.68 157 -194 157 C-193.64421875 156.15743652 -193.64421875 156.15743652 -193.28125 155.29785156 C-191.70680643 152.47417342 -189.78315455 150.52385158 -187.5 148.234375 C-186.613125 147.34492188 -185.72625 146.45546875 -184.8125 145.5390625 C-183.4203125 144.15847656 -183.4203125 144.15847656 -182 142.75 C-180.6078125 141.34621094 -180.6078125 141.34621094 -179.1875 139.9140625 C-178.300625 139.02976563 -177.41375 138.14546875 -176.5 137.234375 C-175.6853125 136.42194336 -174.870625 135.60951172 -174.03125 134.77246094 C-172 133 -172 133 -170 133 C-169.731875 132.401875 -169.46375 131.80375 -169.1875 131.1875 C-168.00082594 129.00152146 -166.90400887 127.58667406 -165 126 C-164.34 126 -163.68 126 -163 126 C-162.731875 125.401875 -162.46375 124.80375 -162.1875 124.1875 C-161.00082594 122.00152146 -159.90400887 120.58667406 -158 119 C-157.34 119 -156.68 119 -156 119 C-155.73123047 118.40670898 -155.46246094 117.81341797 -155.18554688 117.20214844 C-153.99709268 114.99459967 -152.79257611 113.53457118 -151.03125 111.765625 C-150.46019531 111.19199219 -149.88914062 110.61835938 -149.30078125 110.02734375 C-148.40939453 109.14755859 -148.40939453 109.14755859 -147.5 108.25 C-146.60861328 107.34701172 -146.60861328 107.34701172 -145.69921875 106.42578125 C-145.12816406 105.85730469 -144.55710937 105.28882813 -143.96875 104.703125 C-143.44732422 104.18395508 -142.92589844 103.66478516 -142.38867188 103.12988281 C-141 102 -141 102 -139 102 C-138.731875 101.401875 -138.46375 100.80375 -138.1875 100.1875 C-137.00082594 98.00152146 -135.90400887 96.58667406 -134 95 C-133.34 95 -132.68 95 -132 95 C-131.731875 94.401875 -131.46375 93.80375 -131.1875 93.1875 C-130.00082594 91.00152146 -128.90400887 89.58667406 -127 88 C-126.34 88 -125.68 88 -125 88 C-124.73123047 87.40670898 -124.46246094 86.81341797 -124.18554688 86.20214844 C-122.99709268 83.99459967 -121.79257611 82.53457118 -120.03125 80.765625 C-119.46019531 80.19199219 -118.88914062 79.61835938 -118.30078125 79.02734375 C-117.40939453 78.14755859 -117.40939453 78.14755859 -116.5 77.25 C-115.60861328 76.34701172 -115.60861328 76.34701172 -114.69921875 75.42578125 C-114.12816406 74.85730469 -113.55710937 74.28882813 -112.96875 73.703125 C-112.44732422 73.18395508 -111.92589844 72.66478516 -111.38867188 72.12988281 C-110 71 -110 71 -108 71 C-107.731875 70.401875 -107.46375 69.80375 -107.1875 69.1875 C-106.00082594 67.00152146 -104.90400887 65.58667406 -103 64 C-102.34 64 -101.68 64 -101 64 C-100.731875 63.401875 -100.46375 62.80375 -100.1875 62.1875 C-99.00082594 60.00152146 -97.90400887 58.58667406 -96 57 C-95.34 57 -94.68 57 -94 57 C-93.64421875 56.15743652 -93.64421875 56.15743652 -93.28125 55.29785156 C-91.70680643 52.47417342 -89.78315455 50.52385158 -87.5 48.234375 C-86.613125 47.34492187 -85.72625 46.45546875 -84.8125 45.5390625 C-83.4203125 44.15847656 -83.4203125 44.15847656 -82 42.75 C-80.6078125 41.34621094 -80.6078125 41.34621094 -79.1875 39.9140625 C-78.300625 39.02976563 -77.41375 38.14546875 -76.5 37.234375 C-75.6853125 36.42194336 -74.870625 35.60951172 -74.03125 34.77246094 C-72 33 -72 33 -70 33 C-69.67 32.01 -69.34 31.02 -69 30 C-68.01 30 -67.02 30 -66 30 C-65.67 29.01 -65.34 28.02 -65 27 C-62.99878825 24.63493157 -62.03200339 24.0106678 -59 23 C-58.33677734 22.33291016 -58.33677734 22.33291016 -57.66015625 21.65234375 C-51.60017485 15.62087991 -39.74164886 9 -31 9 C-31 8.34 -31 7.68 -31 7 C-28.79290017 6.34996375 -26.58426108 5.70515255 -24.375 5.0625 C-23.14523437 4.70285156 -21.91546875 4.34320313 -20.6484375 3.97265625 C-15.38692922 2.56996293 -10.56788342 1.87112337 -5.125 1.9375 C-4.15820312 1.94652344 -3.19140625 1.95554687 -2.1953125 1.96484375 C-1.10863281 1.98224609 -1.10863281 1.98224609 0 2 C0 1.34 0 0.68 0 0 Z M-13 35 C-13 35.66 -13 36.32 -13 37 C-14.175625 37.103125 -15.35125 37.20625 -16.5625 37.3125 C-20.84118398 37.83595602 -24.11108827 39.16992389 -28 41 C-29.485 41.495 -29.485 41.495 -31 42 C-31 42.66 -31 43.32 -31 44 C-32.32 44.33 -33.64 44.66 -35 45 C-35 45.66 -35 46.32 -35 47 C-36.65 47.33 -38.3 47.66 -40 48 C-40.33 48.99 -40.66 49.98 -41 51 C-43.0625 51.6875 -43.0625 51.6875 -45 52 C-45 52.66 -45 53.32 -45 54 C-46.32 54.66 -47.64 55.32 -49 56 C-49 56.66 -49 57.32 -49 58 C-49.99 58.33 -50.98 58.66 -52 59 C-52 59.66 -52 60.32 -52 61 C-52.598125 61.268125 -53.19625 61.53625 -53.8125 61.8125 C-55.99847854 62.99917406 -57.41332594 64.09599113 -59 66 C-59 66.66 -59 67.32 -59 68 C-60.485 68.495 -60.485 68.495 -62 69 C-62 69.66 -62 70.32 -62 71 C-63.32 71.66 -64.64 72.32 -66 73 C-66 73.66 -66 74.32 -66 75 C-67.485 75.495 -67.485 75.495 -69 76 C-69 76.66 -69 77.32 -69 78 C-70.32 78.66 -71.64 79.32 -73 80 C-73 80.66 -73 81.32 -73 82 C-74.485 82.495 -74.485 82.495 -76 83 C-76 83.66 -76 84.32 -76 85 C-76.66 85 -77.32 85 -78 85 C-78 85.66 -78 86.32 -78 87 C-78.66 87 -79.32 87 -80 87 C-80 87.66 -80 88.32 -80 89 C-81.485 89.495 -81.485 89.495 -83 90 C-83 90.66 -83 91.32 -83 92 C-84.485 92.495 -84.485 92.495 -86 93 C-88.2085766 94.87508162 -88.2085766 94.87508162 -90 97 C-90 97.66 -90 98.32 -90 99 C-90.66 99 -91.32 99 -92 99 C-93.35803676 100.71659432 -94.49830258 102.53184882 -95.68359375 104.37109375 C-97 106 -97 106 -100 107 C-100 107.99 -100 108.98 -100 110 C-101.32 110.33 -102.64 110.66 -104 111 C-104 111.66 -104 112.32 -104 113 C-105.485 113.495 -105.485 113.495 -107 114 C-107 114.66 -107 115.32 -107 116 C-108.32 116.66 -109.64 117.32 -111 118 C-111 118.66 -111 119.32 -111 120 C-112.485 120.495 -112.485 120.495 -114 121 C-114 121.66 -114 122.32 -114 123 C-115.32 123.66 -116.64 124.32 -118 125 C-118 125.66 -118 126.32 -118 127 C-119.485 127.495 -119.485 127.495 -121 128 C-121 128.66 -121 129.32 -121 130 C-122.485 130.495 -122.485 130.495 -124 131 C-126.2085766 132.87508162 -126.2085766 132.87508162 -128 135 C-128 135.66 -128 136.32 -128 137 C-129.485 137.495 -129.485 137.495 -131 138 C-131 138.66 -131 139.32 -131 140 C-132.32 140.66 -133.64 141.32 -135 142 C-135 142.66 -135 143.32 -135 144 C-136.485 144.495 -136.485 144.495 -138 145 C-138 145.66 -138 146.32 -138 147 C-139.32 147.66 -140.64 148.32 -142 149 C-142 149.66 -142 150.32 -142 151 C-143.485 151.495 -143.485 151.495 -145 152 C-145 152.66 -145 153.32 -145 154 C-146.32 154.66 -147.64 155.32 -149 156 C-149 156.66 -149 157.32 -149 158 C-150.485 158.495 -150.485 158.495 -152 159 C-152 159.66 -152 160.32 -152 161 C-152.99 161.33 -153.98 161.66 -155 162 C-155.73323796 164.01508358 -155.73323796 164.01508358 -156 166 C-156.99 166 -157.98 166 -159 166 C-159 166.66 -159 167.32 -159 168 C-159.99 168.33 -160.98 168.66 -162 169 C-164.2085766 170.87508162 -164.2085766 170.87508162 -166 173 C-166 173.66 -166 174.32 -166 175 C-166.99 175.33 -167.98 175.66 -169 176 C-169 176.66 -169 177.32 -169 178 C-170.32 178.66 -171.64 179.32 -173 180 C-173 180.66 -173 181.32 -173 182 C-173.99 182.33 -174.98 182.66 -176 183 C-176 183.66 -176 184.32 -176 185 C-177.32 185.66 -178.64 186.32 -180 187 C-180 187.66 -180 188.32 -180 189 C-180.99 189.33 -181.98 189.66 -183 190 C-183 190.66 -183 191.32 -183 192 C-184.32 192.66 -185.64 193.32 -187 194 C-187 194.66 -187 195.32 -187 196 C-187.99 196.33 -188.98 196.66 -190 197 C-190 197.66 -190 198.32 -190 199 C-190.99 199.33 -191.98 199.66 -193 200 C-195.2085766 201.87508162 -195.2085766 201.87508162 -197 204 C-197 204.66 -197 205.32 -197 206 C-197.99 206.33 -198.98 206.66 -200 207 C-200 207.66 -200 208.32 -200 209 C-201.32 209.66 -202.64 210.32 -204 211 C-204 211.66 -204 212.32 -204 213 C-204.99 213.33 -205.98 213.66 -207 214 C-207 214.66 -207 215.32 -207 216 C-208.32 216.66 -209.64 217.32 -211 218 C-211 218.66 -211 219.32 -211 220 C-211.99 220.33 -212.98 220.66 -214 221 C-214 221.66 -214 222.32 -214 223 C-215.32 223.66 -216.64 224.32 -218 225 C-218 225.66 -218 226.32 -218 227 C-218.99 227.33 -219.98 227.66 -221 228 C-221 228.66 -221 229.32 -221 230 C-221.99 230.33 -222.98 230.66 -224 231 C-226.2085766 232.87508162 -226.2085766 232.87508162 -228 235 C-228 235.66 -228 236.32 -228 237 C-228.99 237.33 -229.98 237.66 -231 238 C-233.2085766 239.87508162 -233.2085766 239.87508162 -235 242 C-235 242.66 -235 243.32 -235 244 C-235.99 244.33 -236.98 244.66 -238 245 C-238 245.66 -238 246.32 -238 247 C-239.32 247.66 -240.64 248.32 -242 249 C-242 249.66 -242 250.32 -242 251 C-242.99 251.33 -243.98 251.66 -245 252 C-245 252.66 -245 253.32 -245 254 C-246.32 254.66 -247.64 255.32 -249 256 C-249 256.66 -249 257.32 -249 258 C-249.99 258.33 -250.98 258.66 -252 259 C-252 259.66 -252 260.32 -252 261 C-252.99 261.33 -253.98 261.66 -255 262 C-257.2085766 263.87508162 -257.2085766 263.87508162 -259 266 C-259 266.66 -259 267.32 -259 268 C-259.99 268.33 -260.98 268.66 -262 269 C-264.2085766 270.87508162 -264.2085766 270.87508162 -266 273 C-266 273.66 -266 274.32 -266 275 C-266.99 275.33 -267.98 275.66 -269 276 C-269 276.66 -269 277.32 -269 278 C-270.32 278.66 -271.64 279.32 -273 280 C-273 280.66 -273 281.32 -273 282 C-273.99 282.33 -274.98 282.66 -276 283 C-276 283.66 -276 284.32 -276 285 C-277.32 285.66 -278.64 286.32 -280 287 C-280 287.66 -280 288.32 -280 289 C-280.99 289.33 -281.98 289.66 -283 290 C-283 290.66 -283 291.32 -283 292 C-284.32 292.66 -285.64 293.32 -287 294 C-287 294.66 -287 295.32 -287 296 C-287.99 296.33 -288.98 296.66 -290 297 C-290 297.66 -290 298.32 -290 299 C-290.99 299.33 -291.98 299.66 -293 300 C-295.2085766 301.87508162 -295.2085766 301.87508162 -297 304 C-297 304.66 -297 305.32 -297 306 C-297.99 306.33 -298.98 306.66 -300 307 C-300 307.66 -300 308.32 -300 309 C-301.32 309.66 -302.64 310.32 -304 311 C-304 311.66 -304 312.32 -304 313 C-304.99 313.33 -305.98 313.66 -307 314 C-307 314.66 -307 315.32 -307 316 C-308.32 316.66 -309.64 317.32 -311 318 C-311 318.66 -311 319.32 -311 320 C-311.99 320.33 -312.98 320.66 -314 321 C-314 321.66 -314 322.32 -314 323 C-315.32 323.66 -316.64 324.32 -318 325 C-318 325.66 -318 326.32 -318 327 C-318.99 327.33 -319.98 327.66 -321 328 C-321 328.66 -321 329.32 -321 330 C-322.32 330.66 -323.64 331.32 -325 332 C-325 332.66 -325 333.32 -325 334 C-325.99 334.33 -326.98 334.66 -328 335 C-328 335.66 -328 336.32 -328 337 C-328.99 337.33 -329.98 337.66 -331 338 C-333.2085766 339.87508162 -333.2085766 339.87508162 -335 342 C-335 342.66 -335 343.32 -335 344 C-335.99 344.33 -336.98 344.66 -338 345 C-338 345.66 -338 346.32 -338 347 C-339.32 347.66 -340.64 348.32 -342 349 C-342 349.66 -342 350.32 -342 351 C-342.99 351.33 -343.98 351.66 -345 352 C-345 352.66 -345 353.32 -345 354 C-346.32 354.66 -347.64 355.32 -349 356 C-349 356.66 -349 357.32 -349 358 C-349.99 358.33 -350.98 358.66 -352 359 C-352 359.66 -352 360.32 -352 361 C-353.32 361.66 -354.64 362.32 -356 363 C-356 363.66 -356 364.32 -356 365 C-356.99 365.33 -357.98 365.66 -359 366 C-359 366.66 -359 367.32 -359 368 C-359.99 368.33 -360.98 368.66 -362 369 C-364.2085766 370.87508162 -364.2085766 370.87508162 -366 373 C-366 373.66 -366 374.32 -366 375 C-366.99 375.33 -367.98 375.66 -369 376 C-371.2085766 377.87508162 -371.2085766 377.87508162 -373 380 C-373 380.66 -373 381.32 -373 382 C-373.99 382.33 -374.98 382.66 -376 383 C-376 383.66 -376 384.32 -376 385 C-377.32 385.66 -378.64 386.32 -380 387 C-380 387.66 -380 388.32 -380 389 C-380.99 389.33 -381.98 389.66 -383 390 C-383 390.66 -383 391.32 -383 392 C-384.32 392.66 -385.64 393.32 -387 394 C-387 394.66 -387 395.32 -387 396 C-387.99 396.33 -388.98 396.66 -390 397 C-390 397.66 -390 398.32 -390 399 C-390.99 399.33 -391.98 399.66 -393 400 C-395.2085766 401.87508162 -395.2085766 401.87508162 -397 404 C-397 404.66 -397 405.32 -397 406 C-397.99 406.33 -398.98 406.66 -400 407 C-402.2085766 408.87508162 -402.2085766 408.87508162 -404 411 C-404 411.66 -404 412.32 -404 413 C-404.99 413.33 -405.98 413.66 -407 414 C-407 414.66 -407 415.32 -407 416 C-407.99 416.33 -408.98 416.66 -410 417 C-410.33 417.99 -410.66 418.98 -411 420 C-412.97956942 421.69088222 -414.97945196 423.35830472 -417 425 C-417.33 425.66 -417.66 426.32 -418 427 C-418.99 427.33 -419.98 427.66 -421 428 C-421 428.99 -421 429.98 -421 431 C-421.99 431 -422.98 431 -424 431 C-424 431.99 -424 432.98 -424 434 C-424.99 434 -425.98 434 -427 434 C-427 434.99 -427 435.98 -427 437 C-427.99 437 -428.98 437 -430 437 C-432.72926391 439.31256494 -432.72926391 439.31256494 -435 442 C-435 442.66 -435 443.32 -435 444 C-435.99 444.33 -436.98 444.66 -438 445 C-438 445.99 -438 446.98 -438 448 C-439.32 448.33 -440.64 448.66 -442 449 C-442 449.66 -442 450.32 -442 451 C-442.99 451.33 -443.98 451.66 -445 452 C-445 452.66 -445 453.32 -445 454 C-446.32 454.66 -447.64 455.32 -449 456 C-449 456.66 -449 457.32 -449 458 C-449.99 458.33 -450.98 458.66 -452 459 C-452 459.66 -452 460.32 -452 461 C-453.32 461.66 -454.64 462.32 -456 463 C-456 463.66 -456 464.32 -456 465 C-456.99 465.33 -457.98 465.66 -459 466 C-459 466.66 -459 467.32 -459 468 C-459.99 468.33 -460.98 468.66 -462 469 C-464.2085766 470.87508162 -464.2085766 470.87508162 -466 473 C-466 473.66 -466 474.32 -466 475 C-466.99 475.33 -467.98 475.66 -469 476 C-471.2085766 477.87508162 -471.2085766 477.87508162 -473 480 C-473 480.66 -473 481.32 -473 482 C-473.99 482.33 -474.98 482.66 -476 483 C-476 483.66 -476 484.32 -476 485 C-477.32 485.66 -478.64 486.32 -480 487 C-480 487.99 -480 488.98 -480 490 C-480.99 490 -481.98 490 -483 490 C-483 490.99 -483 491.98 -483 493 C-484.32 493.33 -485.64 493.66 -487 494 C-487 494.66 -487 495.32 -487 496 C-487.99 496.33 -488.98 496.66 -490 497 C-490 497.66 -490 498.32 -490 499 C-491.32 499.66 -492.64 500.32 -494 501 C-494 501.66 -494 502.32 -494 503 C-494.99 503.33 -495.98 503.66 -497 504 C-497 504.66 -497 505.32 -497 506 C-497.99 506.33 -498.98 506.66 -500 507 C-502.2085766 508.87508162 -502.2085766 508.87508162 -504 511 C-504 511.66 -504 512.32 -504 513 C-504.99 513.33 -505.98 513.66 -507 514 C-507 514.66 -507 515.32 -507 516 C-508.32 516.66 -509.64 517.32 -511 518 C-511 518.66 -511 519.32 -511 520 C-511.99 520.33 -512.98 520.66 -514 521 C-514 521.66 -514 522.32 -514 523 C-515.32 523.66 -516.64 524.32 -518 525 C-518 525.66 -518 526.32 -518 527 C-518.99 527.33 -519.98 527.66 -521 528 C-521 528.66 -521 529.32 -521 530 C-522.32 530.66 -523.64 531.32 -525 532 C-525 532.66 -525 533.32 -525 534 C-525.99 534.33 -526.98 534.66 -528 535 C-528 535.66 -528 536.32 -528 537 C-528.99 537.33 -529.98 537.66 -531 538 C-533.2085766 539.87508162 -533.2085766 539.87508162 -535 542 C-535 542.66 -535 543.32 -535 544 C-535.99 544.33 -536.98 544.66 -538 545 C-538 545.66 -538 546.32 -538 547 C-539.32 547.66 -540.64 548.32 -542 549 C-542 549.66 -542 550.32 -542 551 C-542.99 551.33 -543.98 551.66 -545 552 C-545 552.66 -545 553.32 -545 554 C-546.32 554.66 -547.64 555.32 -549 556 C-549 556.66 -549 557.32 -549 558 C-549.99 558.33 -550.98 558.66 -552 559 C-552 559.66 -552 560.32 -552 561 C-553.32 561.66 -554.64 562.32 -556 563 C-556 563.66 -556 564.32 -556 565 C-556.99 565.33 -557.98 565.66 -559 566 C-559 566.66 -559 567.32 -559 568 C-560.32 568.66 -561.64 569.32 -563 570 C-563 570.66 -563 571.32 -563 572 C-563.99 572.33 -564.98 572.66 -566 573 C-566 573.66 -566 574.32 -566 575 C-566.99 575.33 -567.98 575.66 -569 576 C-571.2085766 577.87508162 -571.2085766 577.87508162 -573 580 C-573 580.66 -573 581.32 -573 582 C-573.99 582.33 -574.98 582.66 -576 583 C-576 583.66 -576 584.32 -576 585 C-577.32 585.66 -578.64 586.32 -580 587 C-580 587.66 -580 588.32 -580 589 C-580.99 589.33 -581.98 589.66 -583 590 C-583 590.66 -583 591.32 -583 592 C-584.32 592.66 -585.64 593.32 -587 594 C-587 594.66 -587 595.32 -587 596 C-587.99 596.33 -588.98 596.66 -590 597 C-590 597.66 -590 598.32 -590 599 C-591.98 599.66 -593.96 600.32 -596 601 C-596 601.66 -596 602.32 -596 603 C-599.63 603 -603.26 603 -607 603 C-607 602.34 -607 601.68 -607 601 C-607.94875 600.731875 -608.8975 600.46375 -609.875 600.1875 C-613 599 -613 599 -615 596 C-615.66 596 -616.32 596 -617 596 C-617.33 595.01 -617.66 594.02 -618 593 C-619.66215268 591.66104368 -621.32963607 590.32869858 -623 589 C-624.2065625 587.5459375 -624.2065625 587.5459375 -625.4375 586.0625 C-627.90639631 582.9268956 -627.90639631 582.9268956 -631 580.5 C-633.30611421 578.57823816 -634.91947609 576.98642267 -636.75 574.6875 C-637.4925 573.800625 -638.235 572.91375 -639 572 C-639.66 572 -640.32 572 -641 572 C-641.33 571.01 -641.66 570.02 -642 569 C-643.87508162 566.7914234 -643.87508162 566.7914234 -646 565 C-646.66 565 -647.32 565 -648 565 C-648.33 564.01 -648.66 563.02 -649 562 C-650.66215268 560.66104368 -652.32963607 559.32869858 -654 558 C-655.2065625 556.5459375 -655.2065625 556.5459375 -656.4375 555.0625 C-658.90639631 551.9268956 -658.90639631 551.9268956 -662 549.5 C-665.10446403 546.91294664 -667.42534724 544.10278666 -670 541 C-671.65533995 539.65263027 -673.32012773 538.31665664 -675 537 C-675.99 535.515 -675.99 535.515 -677 534 C-677.66 534 -678.32 534 -679 534 C-679.33 533.01 -679.66 532.02 -680 531 C-681.87508162 528.7914234 -681.87508162 528.7914234 -684 527 C-684.66 527 -685.32 527 -686 527 C-686.33 526.01 -686.66 525.02 -687 524 C-688.63604196 522.62926214 -690.30678061 521.29944744 -692 520 C-694.20803617 517.86096496 -696.27928656 515.68297202 -698.3125 513.375 C-701.58722649 510.48105566 -703.784837 509.9091528 -708 509 C-708 508.34 -708 507.68 -708 507 C-709.98 506.67 -711.96 506.34 -714 506 C-714 505.34 -714 504.68 -714 504 C-716.24732102 503.15875684 -718.49738785 502.32685168 -720.75 501.5 C-721.70132813 501.14228516 -721.70132813 501.14228516 -722.671875 500.77734375 C-726.03286607 499.55198242 -728.36871587 499 -732 499 C-732 498.34 -732 497.68 -732 497 C-737.66642551 495.77482692 -743.23708518 495.90771133 -749 496 C-749 495.34 -749 494.68 -749 494 C-752.96 494 -756.92 494 -761 494 C-761 494.66 -761 495.32 -761 496 C-761.79664063 495.98839844 -762.59328125 495.97679687 -763.4140625 495.96484375 C-771.25478989 495.88148443 -771.25478989 495.88148443 -779 497 C-779 497.66 -779 498.32 -779 499 C-779.6290625 499.02578125 -780.258125 499.0515625 -780.90625 499.078125 C-787.23015102 499.49717868 -791.50558326 500.8457978 -797 504 C-797 504.66 -797 505.32 -797 506 C-798.98 506.33 -800.96 506.66 -803 507 C-803 507.66 -803 508.32 -803 509 C-803.53625 509.0825 -804.0725 509.165 -804.625 509.25 C-809.27571568 510.71864706 -812.68228778 513.42193288 -815.6875 517.1875 C-818 520 -818 520 -821 521 C-821 521.99 -821 522.98 -821 524 C-821.99 524.33 -822.98 524.66 -824 525 C-827.03277199 528.05508026 -827.03277199 528.05508026 -828 532 C-828.66 532 -829.32 532 -830 532 C-832.2773501 534.81509993 -832.2773501 534.81509993 -832 538 C-832.66 538 -833.32 538 -834 538 C-834.495 539.98 -834.495 539.98 -835 542 C-835.66 542 -836.32 542 -837 542 C-837.84161854 544.08000011 -838.67300763 546.16414146 -839.5 548.25 C-839.9640625 549.41015625 -840.428125 550.5703125 -840.90625 551.765625 C-842.21356233 555.06248366 -842.21356233 555.06248366 -842 559 C-842.66 559 -843.32 559 -844 559 C-844.20496094 560.27617188 -844.40992188 561.55234375 -844.62109375 562.8671875 C-844.89305815 564.53648621 -845.16520291 566.20575553 -845.4375 567.875 C-845.57220703 568.71675781 -845.70691406 569.55851563 -845.84570312 570.42578125 C-846.04389648 571.63427734 -846.04389648 571.63427734 -846.24609375 572.8671875 C-846.42676392 573.98262939 -846.42676392 573.98262939 -846.61108398 575.12060547 C-847 577 -847 577 -848 579 C-848.09540112 580.49761762 -848.13073486 581.99934828 -848.1328125 583.5 C-848.13410156 584.386875 -848.13539063 585.27375 -848.13671875 586.1875 C-848.13285156 587.115625 -848.12898437 588.04375 -848.125 589 C-848.12886719 589.928125 -848.13273438 590.85625 -848.13671875 591.8125 C-848.13478516 593.1428125 -848.13478516 593.1428125 -848.1328125 594.5 C-848.13168457 595.3146875 -848.13055664 596.129375 -848.12939453 596.96875 C-848.12801503 599.06850952 -848.12801503 599.06850952 -847 601 C-846.71504237 602.44428618 -846.46921253 603.89644002 -846.24609375 605.3515625 C-846.11396484 606.20234375 -845.98183594 607.053125 -845.84570312 607.9296875 C-845.71099609 608.81914063 -845.57628906 609.70859375 -845.4375 610.625 C-845.29892578 611.5221875 -845.16035156 612.419375 -845.01757812 613.34375 C-844.67539234 615.56205784 -844.33632903 617.78079791 -844 620 C-843.34 620 -842.68 620 -842 620 C-841.9175 621.134375 -841.835 622.26875 -841.75 623.4375 C-841.15436286 628.4070696 -839.21237727 632.5546652 -837 637 C-836.34 637 -835.68 637 -835 637 C-834.67 638.32 -834.34 639.64 -834 641 C-833.34 641 -832.68 641 -832 641 C-831.855625 641.598125 -831.71125 642.19625 -831.5625 642.8125 C-830.33491003 647.586461 -828.85340057 648.99246785 -825 652 C-824.01 653.485 -824.01 653.485 -823 655 C-822.34 655 -821.68 655 -821 655 C-820.67 656.32 -820.34 657.64 -820 659 C-819.34 659 -818.68 659 -818 659 C-817.731875 659.598125 -817.46375 660.19625 -817.1875 660.8125 C-816.00082594 662.99847854 -814.90400887 664.41332594 -813 666 C-812.34 666 -811.68 666 -811 666 C-810.505 667.485 -810.505 667.485 -810 669 C-809.34 669 -808.68 669 -808 669 C-807.34 670.32 -806.68 671.64 -806 673 C-805.34 673 -804.68 673 -804 673 C-803.505 674.485 -803.505 674.485 -803 676 C-802.34 676 -801.68 676 -801 676 C-800.34 677.32 -799.68 678.64 -799 680 C-798.34 680 -797.68 680 -797 680 C-796.505 681.485 -796.505 681.485 -796 683 C-795.34 683 -794.68 683 -794 683 C-793.34 684.32 -792.68 685.64 -792 687 C-791.34 687 -790.68 687 -790 687 C-789.505 688.485 -789.505 688.485 -789 690 C-788.34 690 -787.68 690 -787 690 C-786.5978125 690.8971875 -786.5978125 690.8971875 -786.1875 691.8125 C-785.00082594 693.99847854 -783.90400887 695.41332594 -782 697 C-781.34 697 -780.68 697 -780 697 C-779.731875 697.598125 -779.46375 698.19625 -779.1875 698.8125 C-778.00082594 700.99847854 -776.90400887 702.41332594 -775 704 C-774.34 704 -773.68 704 -773 704 C-772.505 705.485 -772.505 705.485 -772 707 C-771.34 707 -770.68 707 -770 707 C-769.34 708.32 -768.68 709.64 -768 711 C-767.34 711 -766.68 711 -766 711 C-765.505 712.485 -765.505 712.485 -765 714 C-764.34 714 -763.68 714 -763 714 C-762.731875 714.598125 -762.46375 715.19625 -762.1875 715.8125 C-761.00082594 717.99847854 -759.90400887 719.41332594 -758 721 C-757.34 721 -756.68 721 -756 721 C-755.731875 721.598125 -755.46375 722.19625 -755.1875 722.8125 C-754.00082594 724.99847854 -752.90400887 726.41332594 -751 728 C-750.34 728 -749.68 728 -749 728 C-748.731875 728.598125 -748.46375 729.19625 -748.1875 729.8125 C-747.00082594 731.99847854 -745.90400887 733.41332594 -744 735 C-743.34 735 -742.68 735 -742 735 C-741.7834375 735.5465625 -741.566875 736.093125 -741.34375 736.65625 C-739.55302365 739.7796099 -737.08824358 742.04551577 -734.5 744.5 C-731.38724304 747.45189096 -728.8153999 750.06237204 -727 754 C-725.54281117 755.23051501 -724.08233702 756.45810441 -722.5859375 757.640625 C-720.04056047 759.82237674 -718.09914974 762.39024626 -716 765 C-714.190014 767.03623426 -712.84546643 768.08668956 -710.4375 769.4375 C-707.6943472 771.19593128 -707.41235504 772.17528993 -706 775 C-704.51790714 776.25655699 -703.03261455 777.51047112 -701.5078125 778.71484375 C-699.35366406 780.55089255 -697.76508446 782.79364442 -696 785 C-692.15477844 788.88218023 -692.15477844 788.88218023 -687 790 C-686.835 790.845625 -686.67 791.69125 -686.5 792.5625 C-684.69484353 796.6993169 -682.46080551 798.45694865 -679.02734375 801.26953125 C-676.29404076 803.60258178 -674.24306228 806.19617215 -672 809 C-669.31160924 811.94100531 -669.31160924 811.94100531 -665.9375 813.9375 C-664 815 -664 815 -662.625 817.3125 C-660.59826615 820.66440598 -658.02290076 822.53232591 -655 825 C-653.66666667 826.66666667 -652.33333333 828.33333333 -651 830 C-650.01 830.825 -649.02 831.65 -648 832.5 C-645.19778116 834.83518237 -643.26479228 837.16900965 -641 840 C-640.030625 840.804375 -639.06125 841.60875 -638.0625 842.4375 C-634.93513226 845.05427709 -632.60469194 847.87436967 -630 851 C-628.00334402 852.67067133 -626.00348966 854.33752986 -624 856 C-623.29875 856.886875 -622.5975 857.77375 -621.875 858.6875 C-619.98379905 861.01998118 -618.79874705 862.00689621 -616 863 C-615.01 863 -614.02 863 -613 863 C-613 863.66 -613 864.32 -613 865 C-606.63894921 865.51926945 -602.04396631 865.13148999 -597 861 C-595.2856382 859.04072937 -593.61594832 857.04119788 -592 855 C-590.33333333 853.66666667 -588.66666667 852.33333333 -587 851 C-586.195625 850.030625 -585.39125 849.06125 -584.5625 848.0625 C-581.94800535 844.93786005 -579.12774536 842.59536317 -576 840 C-574.63755204 838.35704805 -573.30135125 836.69175663 -572 835 C-569.91325299 832.77862415 -567.87189718 830.90314177 -565.4375 829.0625 C-562.88352535 827.12841371 -562.88352535 827.12841371 -561.4375 824.375 C-559.80226463 821.67330678 -558.79982748 821.27264885 -556 820 C-553.71274502 817.98998805 -552.1117809 816.18954152 -550.5625 813.5625 C-548.07373609 809.48092718 -544.95705464 806.63803643 -541 804 C-541 803.34 -541 802.68 -541 802 C-540.34 802 -539.68 802 -539 802 C-538.360625 801.195625 -537.72125 800.39125 -537.0625 799.5625 C-535 797 -535 797 -532 796 C-532 795.01 -532 794.02 -532 793 C-531.34 793 -530.68 793 -530 793 C-528.46762449 791.44616853 -528.46762449 791.44616853 -526.875 789.4375 C-524.37359422 786.48271442 -521.82957388 783.87631539 -518.875 781.375 C-515.46860341 778.48711079 -512.79594132 775.47603516 -510 772 C-508.34619174 770.32057337 -506.67743059 768.65583277 -505 767 C-504.04092117 766.04241274 -503.08261353 765.08405259 -502.125 764.125 C-481.875 743.875 -481.875 743.875 -480.4128418 742.4152832 C-479.02600248 741.02604741 -477.64767634 739.62832979 -476.26953125 738.23046875 C-474 736 -474 736 -471.6875 734.3125 C-471.130625 733.879375 -470.57375 733.44625 -470 733 C-470 732.34 -470 731.68 -470 731 C-469.34 731 -468.68 731 -468 731 C-466.49985609 729.66710346 -466.49985609 729.66710346 -465 728 C-464.443125 727.484375 -463.88625 726.96875 -463.3125 726.4375 C-461.77524355 725.07826341 -461.77524355 725.07826341 -462 723 C-461.01 723 -460.02 723 -459 723 C-459 722.01 -459 721.02 -459 720 C-458.01 720 -457.02 720 -456 720 C-456 719.01 -456 718.02 -456 717 C-455.13375 716.9071875 -455.13375 716.9071875 -454.25 716.8125 C-451.07551517 715.66615826 -449.87151425 713.74043158 -448 711 C-448 710.34 -448 709.68 -448 709 C-447.01 709 -446.02 709 -445 709 C-445 708.01 -445 707.02 -445 706 C-444.01 706 -443.02 706 -442 706 C-439.99377166 704.4117359 -438.98494628 702.97068485 -437.8125 700.6875 C-435.62458392 697.44334857 -433.11548669 695.65668575 -429.9375 693.4296875 C-428.07259674 692.05356937 -426.47992114 690.78515487 -425 689 C-425 688.01 -425 687.02 -425 686 C-424.13375 685.938125 -424.13375 685.938125 -423.25 685.875 C-420.45688443 684.78878839 -419.72390464 683.25761002 -418.20703125 680.76171875 C-415.63293629 677.00470637 -412.10175916 673.05087958 -408 671 C-408 670.34 -408 669.68 -408 669 C-407.34 669 -406.68 669 -406 669 C-402.17656279 665.5595444 -402.17656279 665.5595444 -400 661 C-399.01 661 -398.02 661 -397 661 C-394.99377166 659.4117359 -393.98494628 657.97068485 -392.8125 655.6875 C-390.63162813 652.45379344 -388.13682596 650.78206179 -384.98828125 648.54296875 C-383.12948473 647.10048422 -381.76859607 645.7101433 -380.3125 643.875 C-378.06704314 641.08335093 -375.78219068 639.22575254 -373 637 C-372.08278212 635.95590471 -371.18722758 634.89244226 -370.3125 633.8125 C-368 631 -368 631 -366 630 C-366 629.01 -366 628.02 -366 627 C-365.01 627 -364.02 627 -363 627 C-361.76842717 625.56871266 -360.54447059 624.12921681 -359.3828125 622.640625 C-358 621 -358 621 -355.0625 618.5625 C-351.64243515 615.70081309 -348.58858418 612.64421248 -346 609 C-346 608.34 -346 607.68 -346 607 C-345.34 607 -344.68 607 -344 607 C-342.97469597 606.02596117 -341.98230498 605.0173873 -341 604 C-340.05125 603.236875 -339.1025 602.47375 -338.125 601.6875 C-334.98993872 599.11752384 -332.58771914 596.11853332 -330 593 C-328.33333333 591.66666667 -326.66666667 590.33333333 -325 589 C-324.195625 588.030625 -323.39125 587.06125 -322.5625 586.0625 C-319.94572291 582.93513226 -317.12563033 580.60469194 -314 578 C-312.32932867 576.00334402 -310.66247014 574.00348966 -309 572 C-307.33333333 570.66666667 -305.66666667 569.33333333 -304 568 C-303.175 567.01 -302.35 566.02 -301.5 565 C-299.16769272 562.20123126 -296.87223329 560.20941023 -294 558 C-291.70710528 556.04190477 -291.70710528 556.04190477 -290 554 C-290 553.01 -290 552.02 -290 551 C-289.01 551 -288.02 551 -287 551 C-287 550.01 -287 549.02 -287 548 C-286.34 548 -285.68 548 -285 548 C-283.64613064 546.34997172 -282.31321858 544.6825613 -281 543 C-280.34 542.67 -279.68 542.34 -279 542 C-279 541.34 -279 540.68 -279 540 C-278.01 540 -277.02 540 -276 540 C-276 539.01 -276 538.02 -276 537 C-275.01 537 -274.02 537 -273 537 C-270.9615394 535.38621869 -269.90741889 533.83587894 -268.625 531.5625 C-266.75809052 528.61852735 -264.72664423 527.16892155 -262 525 C-260.85488702 523.72613029 -259.73154594 522.43251056 -258.625 521.125 C-255.86748671 517.88895945 -252.97800219 515.19822489 -249.6953125 512.51171875 C-247.32982921 510.40240531 -245.40515409 508.00832397 -243.45703125 505.515625 C-241.79393038 503.7856434 -240.13185455 503.06592728 -238 502 C-236.63636792 500.02053408 -235.30581356 498.0180755 -234 496 C-232.88759341 494.85143487 -231.76970958 493.7077004 -230.62573242 492.59057617 C-228.59545317 490.60420145 -226.59991203 488.58489663 -224.6015625 486.56640625 C-222.94277364 484.89837255 -221.28391766 483.2304056 -219.625 481.5625 C-218.8 480.72912109 -217.975 479.89574219 -217.125 479.03710938 C-213.4879277 475.38560425 -209.86767978 471.81839893 -205.8984375 468.52734375 C-204.94195313 467.69332031 -203.98546875 466.85929687 -203 466 C-203 465.34 -203 464.68 -203 464 C-202.34 464 -201.68 464 -201 464 C-200.360625 463.195625 -199.72125 462.39125 -199.0625 461.5625 C-197 459 -197 459 -194 458 C-192.50863006 456.23682177 -192.50863006 456.23682177 -191.125 454.125 C-188.69837268 450.74569677 -186.63766284 449.05201493 -183 447 C-181.31267723 445.01739574 -179.64633943 443.0167658 -178 441 C-176.35704805 439.63755204 -174.69175663 438.30135125 -173 437 C-170.74699314 434.94578786 -169.11402575 433.193348 -167.5625 430.5625 C-163.71907407 424.25928147 -157.2062218 419.44283566 -151.375 415 C-148.84382964 412.98845064 -148.84382964 412.98845064 -146.5625 410.0625 C-143.94800535 406.93786005 -141.12774536 404.59536317 -138 402 C-137.34 401.175 -136.68 400.35 -136 399.5 C-134 397 -134 397 -131.0625 394.5625 C-127.93786005 391.94800535 -125.59536317 389.12774536 -123 386 C-121.6078125 384.9171875 -121.6078125 384.9171875 -120.1875 383.8125 C-119.465625 383.214375 -118.74375 382.61625 -118 382 C-118 381.01 -118 380.02 -118 379 C-117.13375 378.9071875 -117.13375 378.9071875 -116.25 378.8125 C-113.07551517 377.66615826 -111.87151425 375.74043158 -110 373 C-110 372.34 -110 371.68 -110 371 C-109.01 371 -108.02 371 -107 371 C-105.62131719 369.37064759 -104.28725907 367.70250393 -103 366 C-102.34 365.67 -101.68 365.34 -101 365 C-100.57356201 364.26676514 -100.14712402 363.53353027 -99.70776367 362.77807617 C-97.7438473 359.58330785 -95.35192276 357.13583607 -92.67578125 354.55078125 C-91.91638496 353.80274483 -91.91638496 353.80274483 -91.14164734 353.03959656 C-89.53670638 351.45894214 -87.9254513 349.88497695 -86.3125 348.3125 C-84.17791192 346.23095301 -82.0499302 344.14297373 -79.92578125 342.05078125 C-78.98130127 341.12950439 -78.03682129 340.20822754 -77.0637207 339.2590332 C-74.77517671 337.26386038 -74.77517671 337.26386038 -75 335 C-74.21625 334.773125 -73.4325 334.54625 -72.625 334.3125 C-69.7802755 333.25346172 -69.7802755 333.25346172 -69 330.5 C-68.67 329.675 -68.34 328.85 -68 328 C-67.278125 327.731875 -66.55625 327.46375 -65.8125 327.1875 C-60.94142503 325.1308239 -57.24554348 320.49995204 -54.90234375 315.796875 C-53.69942403 313.40145045 -52.38818193 313.19409096 -50 312 C-47.85285122 310.13703268 -45.7975793 308.20503061 -44 306 C-44 305.34 -44 304.68 -44 304 C-43.401875 303.731875 -42.80375 303.46375 -42.1875 303.1875 C-40.00152146 302.00082594 -38.58667406 300.90400887 -37 299 C-37 298.34 -37 297.68 -37 297 C-36.21625 296.773125 -35.4325 296.54625 -34.625 296.3125 C-31.31237892 294.65618946 -31.25985643 293.35961714 -30 290 C-28.0625 288.875 -28.0625 288.875 -26 288 C-24.2488427 286.5833253 -24.2488427 286.5833253 -23 285 C-23 284.34 -23 283.68 -23 283 C-22.11006348 282.5968457 -22.11006348 282.5968457 -21.20214844 282.18554688 C-18.99459967 280.99709268 -17.53457118 279.79257611 -15.765625 278.03125 C-14.90517578 277.17466797 -14.90517578 277.17466797 -14.02734375 276.30078125 C-13.14755859 275.40939453 -13.14755859 275.40939453 -12.25 274.5 C-11.64800781 273.90574219 -11.04601562 273.31148437 -10.42578125 272.69921875 C-9.85730469 272.12816406 -9.28882813 271.55710937 -8.703125 270.96875 C-7.92437012 270.18661133 -7.92437012 270.18661133 -7.12988281 269.38867188 C-5.78962453 268.03981731 -5.78962453 268.03981731 -6 266 C-5.278125 265.79375 -4.55625 265.5875 -3.8125 265.375 C-0.0770355 263.54877291 1.43587487 261.25713193 4 258 C4.66 257.67 5.32 257.34 6 257 C6 256.34 6 255.68 6 255 C6.66 255 7.32 255 8 255 C9.81067374 253.28668011 9.81067374 253.28668011 11.625 251.125 C12.25664063 250.40570313 12.88828125 249.68640625 13.5390625 248.9453125 C15.20017123 247.13893067 15.20017123 247.13893067 15 245 C15.87398437 244.61497314 15.87398437 244.61497314 16.765625 244.22216797 C19.20432298 242.88823854 20.80378489 241.4241991 22.75 239.4453125 C23.78640625 238.39923828 23.78640625 238.39923828 24.84375 237.33203125 C25.5553125 236.60371094 26.266875 235.87539063 27 235.125 C28.06734375 234.04412109 28.06734375 234.04412109 29.15625 232.94140625 C30.48669064 231.59359046 31.81505957 230.24372408 33.140625 228.89111328 C34.47900742 227.52988557 35.84761377 226.19813811 37.234375 224.88623047 C39.22779381 223.1872561 39.22779381 223.1872561 39 221 C39.556875 220.773125 40.11375 220.54625 40.6875 220.3125 C43.21191217 219.01523552 43.21191217 219.01523552 45.5625 216.4375 C48 214 48 214 51 213 C52.21870952 211.55072381 53.43338784 210.09743372 54.609375 208.61328125 C56.78602313 206.08812485 59.43918274 204.12493347 62 202 C62.66 201.175 63.32 200.35 64 199.5 C66 197 66 197 68.9375 194.5625 C71.23752462 192.63798961 72.90300882 191.03285931 74.75 188.75 C77 186 77 186 79 185 C80.52825513 182.64394001 81.86335111 180.28937413 83.0625 177.75 C84 176 84 176 86 175 C86.65772428 171.97065509 86.65772428 171.97065509 87 169 C87.99 168.67 88.98 168.34 90 168 C91.24899391 165.78246776 91.24899391 165.78246776 92.1875 163.125 C92.53167969 162.24070313 92.87585938 161.35640625 93.23046875 160.4453125 C94.15009159 157.95031569 94.15009159 157.95031569 94 155 C94.66 155 95.32 155 96 155 C96.20496094 153.94039063 96.40992188 152.88078125 96.62109375 151.7890625 C96.89307666 150.40101178 97.16522044 149.01299256 97.4375 147.625 C97.57220703 146.92632812 97.70691406 146.22765625 97.84570312 145.5078125 C98.88671875 140.2265625 98.88671875 140.2265625 100 138 C100.27560363 133.56821014 100.23183382 129.12686071 100.25 124.6875 C100.270625 123.46998047 100.29125 122.25246094 100.3125 120.99804688 C100.3482556 112.59101194 99.21968967 105.09692174 97 97 C96.66372136 95.66740645 96.32906656 94.33439278 96 93 C95.34 93 94.68 93 94 93 C93.9175 92.01 93.835 91.02 93.75 90 C93.13691993 85.52543052 91.18031955 81.90429315 89 78 C88.34 78 87.68 78 87 78 C86.67 76.35 86.34 74.7 86 73 C85.34 73 84.68 73 84 73 C83.79375 71.948125 83.5875 70.89625 83.375 69.8125 C82.14986714 65.46327833 79.56719689 63.71106964 76 61 C74.66666667 59.33333333 73.33333333 57.66666667 72 56 C68.15477844 52.11781977 68.15477844 52.11781977 63 51 C62.67 50.01 62.34 49.02 62 48 C59.98491642 47.26676204 59.98491642 47.26676204 58 47 C58 46.34 58 45.68 58 45 C55.525 44.505 55.525 44.505 53 44 C53 43.34 53 42.68 53 42 C49.62902617 40.50178941 47.79557881 40 44 40 C44 39.34 44 38.68 44 38 C41.69 37.67 39.38 37.34 37 37 C37 36.34 37 35.68 37 35 C20.9757059 31.49468567 3.0242941 31.49468567 -13 35 Z " fill="#EFF0ED" transform="translate(886,64)"/>
<path d="M0 0 C0.99 0 1.98 0 3 0 C1.44396229 3.81936528 -0.95604931 6.26044438 -4 9 C-4.66 9 -5.32 9 -6 9 C-6.27172028 9.59638275 -6.54344055 10.1927655 -6.82339478 10.80722046 C-7.9781913 12.95935624 -9.11089797 14.36421546 -10.82568359 16.08447266 C-11.67699356 16.94523911 -11.67699356 16.94523911 -12.54550171 17.82339478 C-13.15697052 18.43081512 -13.76843933 19.03823547 -14.3984375 19.6640625 C-15.02980621 20.29734467 -15.66117493 20.93062683 -16.31167603 21.58309937 C-17.64575508 22.91853731 -18.98235478 24.25146129 -20.32128906 25.58203125 C-22.36756922 27.61760808 -24.40297313 29.66362105 -26.4375 31.7109375 C-27.73633839 33.00845424 -29.03579707 34.30535043 -30.3359375 35.6015625 C-30.94335785 36.21303131 -31.5507782 36.82450012 -32.17660522 37.45449829 C-32.75044952 38.02203827 -33.32429382 38.58957825 -33.91552734 39.17431641 C-34.41579437 39.67299225 -34.9160614 40.17166809 -35.43148804 40.68545532 C-37.1746281 42.146353 -38.93625726 43.05973011 -41 44 C-39.50592885 39.2687747 -39.50592885 39.2687747 -37 37.9375 C-36.34 37.628125 -35.68 37.31875 -35 37 C-34.7215625 36.41895508 -34.443125 35.83791016 -34.15625 35.23925781 C-32.68182812 32.38381071 -30.76839629 30.50905245 -28.5 28.234375 C-27.613125 27.34492187 -26.72625 26.45546875 -25.8125 25.5390625 C-24.884375 24.61867188 -23.95625 23.69828125 -23 22.75 C-22.071875 21.81414063 -21.14375 20.87828125 -20.1875 19.9140625 C-19.300625 19.02976562 -18.41375 18.14546875 -17.5 17.234375 C-16.6853125 16.42194336 -15.870625 15.60951172 -15.03125 14.77246094 C-13 13 -13 13 -11 13 C-10.731875 12.360625 -10.46375 11.72125 -10.1875 11.0625 C-9 9 -9 9 -6 8 C-6 7.34 -6 6.68 -6 6 C-5.34 6 -4.68 6 -4 6 C-3.566875 5.071875 -3.566875 5.071875 -3.125 4.125 C-2 2 -2 2 0 0 Z " fill="#ABACAA" transform="translate(689,522)"/>
<path d="M0 0 C0.33 0.99 0.66 1.98 1 3 C-0.328125 4.9375 -0.328125 4.9375 -2.25 7 C-2.87390625 7.680625 -3.4978125 8.36125 -4.140625 9.0625 C-4.75421875 9.701875 -5.3678125 10.34125 -6 11 C-6.53109375 11.5775 -7.0621875 12.155 -7.609375 12.75 C-9 14 -9 14 -11 14 C-10.4409112 10.75728494 -9.5867822 9.06942576 -7 7 C-6.34 7 -5.68 7 -5 7 C-4.731875 6.360625 -4.46375 5.72125 -4.1875 5.0625 C-3 3 -3 3 0 2 C0 1.34 0 0.68 0 0 Z " fill="#A0A0A0" transform="translate(728,483)"/>
<path d="M0 0 C0.66 0.33 1.32 0.66 2 1 C0.95285076 2.32477959 -0.11344669 3.63443746 -1.1875 4.9375 C-1.77917969 5.66839844 -2.37085938 6.39929688 -2.98046875 7.15234375 C-5.32505203 9.29738803 -6.88391498 9.66094412 -10 10 C-9.34 9.67 -8.68 9.34 -8 9 C-7.7525 8.4225 -7.505 7.845 -7.25 7.25 C-5.44093719 3.99368694 -2.92565908 2.28964624 0 0 Z " fill="#999999" transform="translate(646,566)"/>
<path d="M0 0 C-1.44781793 3.44428265 -3.27694609 5.36130962 -6.125 7.75 C-7.21167969 8.67039062 -7.21167969 8.67039062 -8.3203125 9.609375 C-8.87460937 10.06828125 -9.42890625 10.5271875 -10 11 C-10 7.27961985 -9.09675609 6.55097121 -6.6875 3.8125 C-5.76517578 2.73935547 -5.76517578 2.73935547 -4.82421875 1.64453125 C-3 0 -3 0 0 0 Z " fill="#9B9B9A" transform="translate(703,511)"/>
<path d="M0 0 C0.99 0 1.98 0 3 0 C1.4404735 3.82792868 -0.83631836 6.36359864 -4 9 C-6.3125 8.8125 -6.3125 8.8125 -8 8 C-7.34 8 -6.68 8 -6 8 C-6 7.34 -6 6.68 -6 6 C-5.34 6 -4.68 6 -4 6 C-3.71125 5.38125 -3.4225 4.7625 -3.125 4.125 C-2 2 -2 2 0 0 Z " fill="#A1A1A1" transform="translate(689,522)"/>
<path d="M0 0 C2.4375 0.8125 2.4375 0.8125 5 2 C5.33 2.99 5.66 3.98 6 5 C6.66 5.33 7.32 5.66 8 6 C8.8515625 8.06640625 8.8515625 8.06640625 9.625 10.5625 C9.88539063 11.38878906 10.14578125 12.21507812 10.4140625 13.06640625 C10.60742188 13.70449219 10.80078125 14.34257812 11 15 C10.34 15 9.68 15 9 15 C8.67 13.35 8.34 11.7 8 10 C7.34 10 6.68 10 6 10 C4.5393715 7.35261084 4 6.10551666 4 3 C2.68 2.34 1.36 1.68 0 1 C0 0.67 0 0.34 0 0 Z " fill="#636363" transform="translate(964,127)"/>
<path d="M0 0 C0.33 1.32 0.66 2.64 1 4 C-1.64 6.31 -4.28 8.62 -7 11 C-7 10.01 -7 9.02 -7 8 C-6.34 8 -5.68 8 -5 8 C-4.690625 7.38125 -4.38125 6.7625 -4.0625 6.125 C-3.375 4.75 -2.6875 3.375 -2 2 C-1.34 2 -0.68 2 0 2 C0 1.34 0 0.68 0 0 Z " fill="#6B6B6B" transform="translate(542,669)"/>
<path d="M0 0 C0.66 0.33 1.32 0.66 2 1 C-0.46153846 5.8 -0.46153846 5.8 -3.1875 6.8125 C-3.785625 6.874375 -4.38375 6.93625 -5 7 C-4.67 6.01 -4.34 5.02 -4 4 C-3.34 4 -2.68 4 -2 4 C-1.34 2.68 -0.68 1.36 0 0 Z " fill="#868685" transform="translate(708,504)"/>
<path d="M0 0 C0.66 0.33 1.32 0.66 2 1 C1.25 2.9375 1.25 2.9375 0 5 C-2.125 5.75 -2.125 5.75 -4 6 C-3.67 5.01 -3.34 4.02 -3 3 C-2.34 3 -1.68 3 -1 3 C-0.67 2.01 -0.34 1.02 0 0 Z " fill="#8F8F8F" transform="translate(583,629)"/>
</svg>
