<?xml version="1.0" encoding="UTF-8"?>
<svg version="1.1" xmlns="http://www.w3.org/2000/svg" width="1024" height="1024">
<path d="M0 0 C1.16193277 3.4857983 1.12565167 6.19392361 1.12649983 9.87390119 C1.12802638 10.58183379 1.12955293 11.2897664 1.13112573 12.01915151 C1.13505223 14.41412652 1.13179902 16.80903938 1.12863445 19.20401478 C1.12997988 20.93670531 1.13176307 22.66939554 1.13394669 24.40208521 C1.13870131 29.19902466 1.13716711 33.99594525 1.13466892 38.79288565 C1.13304289 43.99814897 1.13717077 49.20340812 1.14057809 54.40867013 C1.14574493 63.54341811 1.14714708 72.67816078 1.14612198 81.81291008 C1.14460134 95.39639562 1.14874925 108.97987525 1.1539966 122.56335965 C1.16368466 148.23114933 1.166482 173.89893599 1.16705366 199.56672708 C1.16711841 202.39935846 1.16718635 205.23198983 1.16725707 208.06462121 C1.16727408 208.76751529 1.16729108 209.47040937 1.1673086 210.19460327 C1.16771677 225.75947441 1.16990578 241.32434514 1.17241292 256.88921606 C1.17344125 263.2950417 1.17443127 269.70086733 1.17542917 276.10669297 C1.17553975 276.81444802 1.17565034 277.52220307 1.17576428 278.25140525 C1.18208994 318.81901034 1.18621323 359.38661516 1.18575573 399.95422077 C1.18573995 401.47296199 1.18572422 402.99170321 1.18570852 404.51044442 C1.18563514 411.36768994 1.18554697 418.22493546 1.18545464 425.08218098 C1.18541351 428.14010502 1.18537337 431.19802906 1.18533332 434.25595311 C1.18531293 435.78650068 1.18529191 437.31704826 1.18527026 438.84759584 C1.18458994 487.25085803 1.19190808 535.65411291 1.20581055 584.05737305 C1.20931145 596.25289819 1.21278085 608.44842335 1.21607494 620.64394855 C1.21627782 621.39483259 1.21648069 622.14571662 1.21668971 622.91935471 C1.22290274 646.05483671 1.22666989 669.1903181 1.22793293 692.3258009 C1.22797288 693.05195098 1.22801283 693.77810107 1.22805399 694.52625571 C1.22890719 710.4654861 1.22916849 726.40471645 1.22888362 742.34394685 C1.22878713 748.04702994 1.22873509 753.75011302 1.22870489 759.4531961 C1.22869697 760.87202965 1.22868677 762.29086321 1.22867426 763.70969676 C1.2284978 786.33610428 1.23420178 808.96250556 1.24282808 831.58891129 C1.25171042 855.00590078 1.25330774 878.42287818 1.24651595 901.83986942 C1.24280937 915.34930765 1.24468556 928.85871847 1.25445829 942.36815382 C1.2604292 951.38071795 1.25919524 960.3932621 1.25198779 969.40582528 C1.24808169 974.54843247 1.24740071 979.69098638 1.25544515 984.83358995 C1.26269182 989.50689195 1.26082571 994.180096 1.25152128 998.85339354 C1.24979213 1000.53836697 1.25145361 1002.22334794 1.25682249 1003.9083137 C1.26360599 1006.18901306 1.25813187 1008.46936556 1.24954766 1010.75005132 C1.24963588 1012.01500689 1.2497241 1013.27996245 1.249815 1014.58325 C0.997327 1018.03655894 0.24387469 1020.78180942 -1 1024 C-15.08610709 1023.25759768 -15.08610709 1023.25759768 -22 1021 C-24.33257494 1020.66140041 -26.66574212 1020.3267961 -29 1020 C-29.33 1019.67 -29.66 1019.34 -30 1019 C-32.32817964 1018.63239269 -34.6618385 1018.29758419 -37 1018 C-37 1017.34 -37 1016.68 -37 1016 C-38.65 1016 -40.3 1016 -42 1016 C-42 1015.34 -42 1014.68 -42 1014 C-44.64 1014 -47.28 1014 -50 1014 C-50 1013.34 -50 1012.68 -50 1012 C-51.50433594 1012.04447266 -51.50433594 1012.04447266 -53.0390625 1012.08984375 C-57.01550636 1011.99964828 -60.49864808 1011.42620741 -64.375 1010.5625 C-65.59960938 1010.29566406 -66.82421875 1010.02882813 -68.0859375 1009.75390625 C-71 1009 -71 1009 -72 1008 C-74.32817964 1007.63239269 -76.6618385 1007.29758419 -79 1007 C-79 1006.34 -79 1005.68 -79 1005 C-81.31 1005 -83.62 1005 -86 1005 C-86 1004.34 -86 1003.68 -86 1003 C-88.64 1003 -91.28 1003 -94 1003 C-94 1002.34 -94 1001.68 -94 1001 C-94.85722656 1000.95101562 -95.71445312 1000.90203125 -96.59765625 1000.8515625 C-102.66756456 1000.45465756 -108.24397411 1000.00791601 -114 998 C-114 997.34 -114 996.68 -114 996 C-116.31 996 -118.62 996 -121 996 C-121 995.34 -121 994.68 -121 994 C-123.31 994 -125.62 994 -128 994 C-128 993.34 -128 992.68 -128 992 C-130.64 992 -133.28 992 -136 992 C-136 991.34 -136 990.68 -136 990 C-140.62 989.67 -145.24 989.34 -150 989 C-150 988.34 -150 987.68 -150 987 C-151.7015625 987.0309375 -151.7015625 987.0309375 -153.4375 987.0625 C-157 987 -157 987 -158 986 C-160.32817964 985.63239269 -162.6618385 985.29758419 -165 985 C-165 984.34 -165 983.68 -165 983 C-167.31 983 -169.62 983 -172 983 C-172 982.34 -172 981.68 -172 981 C-174.64 981 -177.28 981 -180 981 C-180 980.34 -180 979.68 -180 979 C-183.96 978.67 -187.92 978.34 -192 978 C-192 977.34 -192 976.68 -192 976 C-194.64 976 -197.28 976 -200 976 C-200 975.34 -200 974.68 -200 974 C-202.31 974 -204.62 974 -207 974 C-207 973.34 -207 972.68 -207 972 C-209.31 972 -211.62 972 -214 972 C-214 971.34 -214 970.68 -214 970 C-216.64 970 -219.28 970 -222 970 C-222 969.34 -222 968.68 -222 968 C-226.62 967.67 -231.24 967.34 -236 967 C-236 966.34 -236 965.68 -236 965 C-237.7015625 965.0309375 -237.7015625 965.0309375 -239.4375 965.0625 C-243 965 -243 965 -244 964 C-246.32817964 963.63239269 -248.6618385 963.29758419 -251 963 C-251 962.34 -251 961.68 -251 961 C-253.31 961 -255.62 961 -258 961 C-258 960.34 -258 959.68 -258 959 C-260.64 959 -263.28 959 -266 959 C-266 958.34 -266 957.68 -266 957 C-270.62 956.67 -275.24 956.34 -280 956 C-280 955.34 -280 954.68 -280 954 C-281.98 954 -283.96 954 -286 954 C-286 953.34 -286 952.68 -286 952 C-288.31 952 -290.62 952 -293 952 C-293 951.34 -293 950.68 -293 950 C-295.31 950 -297.62 950 -300 950 C-300 949.34 -300 948.68 -300 948 C-302.64 948 -305.28 948 -308 948 C-308 947.34 -308 946.68 -308 946 C-312.62 945.67 -317.24 945.34 -322 945 C-322 944.34 -322 943.68 -322 943 C-323.7015625 943.0309375 -323.7015625 943.0309375 -325.4375 943.0625 C-329 943 -329 943 -330 942 C-332.32817964 941.63239269 -334.6618385 941.29758419 -337 941 C-337 940.34 -337 939.68 -337 939 C-338.2065625 939.0309375 -338.2065625 939.0309375 -339.4375 939.0625 C-342 939 -342 939 -343 938 C-344.78374052 937.6450416 -346.57788957 937.34199918 -348.375 937.0625 C-354.26638131 936.12298715 -360.1339438 935.08545134 -366 934 C-366 933.34 -366 932.68 -366 932 C-367.98 932 -369.96 932 -372 932 C-372 931.34 -372 930.68 -372 930 C-374.31 930 -376.62 930 -379 930 C-379 929.34 -379 928.68 -379 928 C-381.31 928 -383.62 928 -386 928 C-386 927.34 -386 926.68 -386 926 C-387.546875 926.0928125 -387.546875 926.0928125 -389.125 926.1875 C-395.55794379 926.22233544 -401.77524163 924.46876321 -408 923 C-408 922.34 -408 921.68 -408 921 C-409.7015625 921.0309375 -409.7015625 921.0309375 -411.4375 921.0625 C-415 921 -415 921 -416 920 C-418.32817964 919.63239269 -420.6618385 919.29758419 -423 919 C-423 918.34 -423 917.68 -423 917 C-425.31 917 -427.62 917 -430 917 C-430 916.34 -430 915.68 -430 915 C-431.7015625 915.0928125 -431.7015625 915.0928125 -433.4375 915.1875 C-438 915 -438 915 -447 912 C-447 652.95 -447 393.9 -447 127 C-445.68 127 -444.36 127 -443 127 C-443 126.34 -443 125.68 -443 125 C-440.69 125 -438.38 125 -436 125 C-436 124.34 -436 123.68 -436 123 C-422.3667426 119.55580866 -422.3667426 119.55580866 -416 120 C-416 119.34 -416 118.68 -416 118 C-414.02 118 -412.04 118 -410 118 C-410 117.34 -410 116.68 -410 116 C-408.35 116 -406.7 116 -405 116 C-405 115.34 -405 114.68 -405 114 C-402.36 114 -399.72 114 -397 114 C-397 113.34 -397 112.68 -397 112 C-395.948125 111.87625 -394.89625 111.7525 -393.8125 111.625 C-390.13854565 111.17182759 -390.13854565 111.17182759 -387.4375 109.9375 C-384.5087509 108.81105804 -382.11110233 108.85529757 -379 109 C-379 108.34 -379 107.68 -379 107 C-376.69 107 -374.38 107 -372 107 C-372 106.34 -372 105.68 -372 105 C-369.36 105 -366.72 105 -364 105 C-364 104.34 -364 103.68 -364 103 C-362.35 103 -360.7 103 -359 103 C-359 102.34 -359 101.68 -359 101 C-356.66836622 100.32741333 -354.3347961 99.66152556 -352 99 C-351.01 98.690625 -351.01 98.690625 -350 98.375 C-346.99935943 97.81237989 -344.04286083 97.94148345 -341 98 C-341 97.34 -341 96.68 -341 96 C-339.02 96 -337.04 96 -335 96 C-335 95.34 -335 94.68 -335 94 C-332.69 94 -330.38 94 -328 94 C-328 93.34 -328 92.68 -328 92 C-326.02 92 -324.04 92 -322 92 C-322 91.34 -322 90.68 -322 90 C-321.38511719 89.86722656 -320.77023437 89.73445313 -320.13671875 89.59765625 C-318.92435547 89.33275391 -318.92435547 89.33275391 -317.6875 89.0625 C-316.48673828 88.80146484 -316.48673828 88.80146484 -315.26171875 88.53515625 C-312.854599 88.00113841 -312.854599 88.00113841 -310 87 C-308.60560336 86.93334624 -307.20830125 86.91461801 -305.8125 86.9375 C-304.554375 86.958125 -303.29625 86.97875 -302 87 C-302 86.34 -302 85.68 -302 85 C-300.35 85 -298.7 85 -297 85 C-297 84.34 -297 83.68 -297 83 C-294.36 83 -291.72 83 -289 83 C-289 82.34 -289 81.68 -289 81 C-287.35 81 -285.7 81 -284 81 C-284 80.34 -284 79.68 -284 79 C-279.71 78.67 -275.42 78.34 -271 78 C-271 77.34 -271 76.68 -271 76 C-268.69 76 -266.38 76 -264 76 C-264 75.34 -264 74.68 -264 74 C-262.02 74 -260.04 74 -258 74 C-258 73.34 -258 72.68 -258 72 C-255.69 72 -253.38 72 -251 72 C-251 71.34 -251 70.68 -251 70 C-245.17251381 67.57188075 -239.2242509 67.38272093 -233 67 C-233 66.34 -233 65.68 -233 65 C-231.02 65 -229.04 65 -227 65 C-227 64.34 -227 63.68 -227 63 C-224.69 63 -222.38 63 -220 63 C-220 62.34 -220 61.68 -220 61 C-218.02 61 -216.04 61 -214 61 C-214 60.34 -214 59.68 -214 59 C-211.69 59 -209.38 59 -207 59 C-207 58.34 -207 57.68 -207 57 C-202.59085217 55.89771304 -198.51617599 55.92345464 -194 56 C-194 55.34 -194 54.68 -194 54 C-191.69 54 -189.38 54 -187 54 C-187 53.34 -187 52.68 -187 52 C-183.17679443 50.57741188 -180.08718695 49.75957724 -176 50 C-176 49.34 -176 48.68 -176 48 C-174.453125 47.814375 -174.453125 47.814375 -172.875 47.625 C-169.07626416 47.12298625 -169.07626416 47.12298625 -165.875 45.9375 C-163.04897244 45.01596927 -160.94528126 44.82674816 -158 45 C-158 44.34 -158 43.68 -158 43 C-155.36 43 -152.72 43 -150 43 C-150 42.34 -150 41.68 -150 41 C-148.35 41 -146.7 41 -145 41 C-145 40.34 -145 39.68 -145 39 C-143.4840625 38.8453125 -143.4840625 38.8453125 -141.9375 38.6875 C-138.0243865 38.18266902 -138.0243865 38.18266902 -134.8125 36.5 C-129.85883735 34.17086963 -124.38550131 34.25645244 -119 34 C-119 33.34 -119 32.68 -119 32 C-116.69 32 -114.38 32 -112 32 C-112 31.34 -112 30.68 -112 30 C-107.49646738 28.24252386 -103.82360189 27.80705592 -99 28 C-99 27.34 -99 26.68 -99 26 C-93.17251381 23.57188075 -87.2242509 23.38272093 -81 23 C-81 22.34 -81 21.68 -81 21 C-78.69 21 -76.38 21 -74 21 C-74 20.34 -74 19.68 -74 19 C-72.02 19 -70.04 19 -68 19 C-68 18.34 -68 17.68 -68 17 C-65.69 17 -63.38 17 -61 17 C-61 16.34 -61 15.68 -61 15 C-58.66836622 14.32741333 -56.3347961 13.66152556 -54 13 C-53.360625 12.79375 -52.72125 12.5875 -52.0625 12.375 C-48.71374413 11.7661353 -45.39854178 11.94335764 -42 12 C-42 11.34 -42 10.68 -42 10 C-40.35 10 -38.7 10 -37 10 C-37 9.34 -37 8.68 -37 8 C-35.02 8 -33.04 8 -31 8 C-31 7.34 -31 6.68 -31 6 C-28.69 6 -26.38 6 -24 6 C-24 5.34 -24 4.68 -24 4 C-21.12666819 3.32533928 -18.25168518 2.6600766 -15.375 2 C-14.16263672 1.71382813 -14.16263672 1.71382813 -12.92578125 1.421875 C-8.52795831 0.42074457 -4.54438961 -0.2353082 0 0 Z " fill="#FEFEFE" transform="translate(528,0)"/>
<path d="M0 0 C1.65 0 3.3 0 5 0 C5 0.66 5 1.32 5 2 C6.98 2.495 6.98 2.495 9 3 C9 3.66 9 4.32 9 5 C9.66 5 10.32 5 11 5 C11 5.66 11 6.32 11 7 C11.66 7 12.32 7 13 7 C13 7.66 13 8.32 13 9 C13.66 9 14.32 9 15 9 C15.33 10.32 15.66 11.64 16 13 C17.98 13.495 17.98 13.495 20 14 C20 14.66 20 15.32 20 16 C20.66 16 21.32 16 22 16 C22 16.66 22 17.32 22 18 C22.639375 18.103125 23.27875 18.20625 23.9375 18.3125 C24.618125 18.539375 25.29875 18.76625 26 19 C26.33 19.99 26.66 20.98 27 22 C27.66 22 28.32 22 29 22 C29 22.66 29 23.32 29 24 C29.556875 24.226875 30.11375 24.45375 30.6875 24.6875 C33.66159588 26.37550036 35.72008865 28.46676517 38 31 C38 31.66 38 32.32 38 33 C38.66 33 39.32 33 40 33 C40 33.66 40 34.32 40 35 C41.32 35.33 42.64 35.66 44 36 C44 36.66 44 37.32 44 38 C44.66 38 45.32 38 46 38 C49 41.46153846 49 41.46153846 49 44 C49.66 44 50.32 44 51 44 C51 44.66 51 45.32 51 46 C52.32 46.33 53.64 46.66 55 47 C55 47.66 55 48.32 55 49 C55.66 49 56.32 49 57 49 C60 52.46153846 60 52.46153846 60 55 C60.61875 55.309375 61.2375 55.61875 61.875 55.9375 C63.25 56.625 64.625 57.3125 66 58 C66 58.66 66 59.32 66 60 C66.66 60 67.32 60 68 60 C71 63.46153846 71 63.46153846 71 66 C71.61875 66.309375 72.2375 66.61875 72.875 66.9375 C74.25 67.625 75.625 68.3125 77 69 C77 69.66 77 70.32 77 71 C77.66 71 78.32 71 79 71 C79.33 72.32 79.66 73.64 80 75 C80.66 75 81.32 75 82 75 C82 75.66 82 76.32 82 77 C83.32 77.33 84.64 77.66 86 78 C86 78.66 86 79.32 86 80 C86.66 80 87.32 80 88 80 C88 80.66 88 81.32 88 82 C88.66 82 89.32 82 90 82 C90.33 83.32 90.66 84.64 91 86 C91.66 86 92.32 86 93 86 C93 86.66 93 87.32 93 88 C94.32 88.33 95.64 88.66 97 89 C97 89.66 97 90.32 97 91 C97.66 91 98.32 91 99 91 C99 91.66 99 92.32 99 93 C99.66 93 100.32 93 101 93 C101.33 94.32 101.66 95.64 102 97 C102.66 97 103.32 97 104 97 C104 97.66 104 98.32 104 99 C105.32 99.33 106.64 99.66 108 100 C108 100.66 108 101.32 108 102 C108.66 102 109.32 102 110 102 C110 102.66 110 103.32 110 104 C110.66 104 111.32 104 112 104 C112.33 105.32 112.66 106.64 113 108 C113.66 108 114.32 108 115 108 C115 108.66 115 109.32 115 110 C116.32 110.33 117.64 110.66 119 111 C119 111.66 119 112.32 119 113 C119.66 113 120.32 113 121 113 C121 113.66 121 114.32 121 115 C121.66 115 122.32 115 123 115 C123.33 116.32 123.66 117.64 124 119 C124.66 119 125.32 119 126 119 C126 119.66 126 120.32 126 121 C127.32 121.33 128.64 121.66 130 122 C130 122.66 130 123.32 130 124 C130.66 124 131.32 124 132 124 C132 124.66 132 125.32 132 126 C132.66 126 133.32 126 134 126 C134.0825 126.61875 134.165 127.2375 134.25 127.875 C134.80583476 130.16088794 134.80583476 130.16088794 136.9375 131.1875 C137.618125 131.455625 138.29875 131.72375 139 132 C139.66 132.33 140.32 132.66 141 133 C141 133.66 141 134.32 141 135 C141.66 135 142.32 135 143 135 C143 135.66 143 136.32 143 137 C143.66 137 144.32 137 145 137 C145 137.66 145 138.32 145 139 C145.99 139 146.98 139 148 139 C148 139.66 148 140.32 148 141 C148.66 141 149.32 141 150 141 C150 141.66 150 142.32 150 143 C150.639375 143.268125 151.27875 143.53625 151.9375 143.8125 C154 145 154 145 155 148 C155.66 148 156.32 148 157 148 C157 148.66 157 149.32 157 150 C157.66 150 158.32 150 159 150 C159 150.66 159 151.32 159 152 C159.66 152 160.32 152 161 152 C161 152.66 161 153.32 161 154 C161.66 154 162.32 154 163 154 C163 156.31 163 158.62 163 161 C162.34 161 161.68 161 161 161 C161 161.66 161 162.32 161 163 C160.38125 163.0825 159.7625 163.165 159.125 163.25 C156.83911206 163.80583476 156.83911206 163.80583476 155.8125 165.9375 C155.544375 166.618125 155.27625 167.29875 155 168 C154.67 168.66 154.34 169.32 154 170 C153.34 170 152.68 170 152 170 C152 170.66 152 171.32 152 172 C151.34 172 150.68 172 150 172 C150 172.66 150 173.32 150 174 C148.68 174.33 147.36 174.66 146 175 C145.67 176.32 145.34 177.64 145 179 C144.34 179 143.68 179 143 179 C143 179.66 143 180.32 143 181 C142.34 181 141.68 181 141 181 C141 181.66 141 182.32 141 183 C137.53846154 186 137.53846154 186 135 186 C134.67 187.32 134.34 188.64 134 190 C133.34 190 132.68 190 132 190 C132 190.66 132 191.32 132 192 C131.34 192 130.68 192 130 192 C130 192.66 130 193.32 130 194 C128.68 194.33 127.36 194.66 126 195 C126 195.66 126 196.32 126 197 C125.34 197 124.68 197 124 197 C123.67 198.32 123.34 199.64 123 201 C122.34 201 121.68 201 121 201 C121 201.66 121 202.32 121 203 C120.34 203 119.68 203 119 203 C119 203.66 119 204.32 119 205 C117.68 205.33 116.36 205.66 115 206 C115 206.66 115 207.32 115 208 C114.34 208 113.68 208 113 208 C112.67 209.32 112.34 210.64 112 212 C111.34 212 110.68 212 110 212 C110 212.66 110 213.32 110 214 C109.34 214 108.68 214 108 214 C108 214.66 108 215.32 108 216 C106.68 216.33 105.36 216.66 104 217 C104 217.66 104 218.32 104 219 C103.34 219 102.68 219 102 219 C101.67 220.32 101.34 221.64 101 223 C100.34 223 99.68 223 99 223 C99 223.66 99 224.32 99 225 C98.34 225 97.68 225 97 225 C97 225.66 97 226.32 97 227 C95.68 227.33 94.36 227.66 93 228 C93 228.66 93 229.32 93 230 C92.34 230 91.68 230 91 230 C90.67 231.32 90.34 232.64 90 234 C89.34 234 88.68 234 88 234 C88 234.66 88 235.32 88 236 C84.53846154 239 84.53846154 239 82 239 C82 239.66 82 240.32 82 241 C81.34 241 80.68 241 80 241 C79.773125 241.556875 79.54625 242.11375 79.3125 242.6875 C77.62449964 245.66159588 75.53323483 247.72008865 73 250 C72.34 250 71.68 250 71 250 C71 250.66 71 251.32 71 252 C70.34 252 69.68 252 69 252 C68.731875 252.598125 68.46375 253.19625 68.1875 253.8125 C67.00082594 255.99847854 65.90400887 257.41332594 64 259 C63.34 259 62.68 259 62 259 C62 259.66 62 260.32 62 261 C61.34 261 60.68 261 60 261 C59.62875 261.86625 59.62875 261.86625 59.25 262.75 C57.80606301 265.34908658 56.26478013 267.07836838 54 269 C53.01 269 52.02 269 51 269 C51 269.99 51 270.98 51 272 C50.01 272 49.02 272 48 272 C48 272.66 48 273.32 48 274 C47.34 274 46.68 274 46 274 C46 274.66 46 275.32 46 276 C45.34 276 44.68 276 44 276 C44 276.66 44 277.32 44 278 C43.34 278 42.68 278 42 278 C42 278.66 42 279.32 42 280 C40.68 280.33 39.36 280.66 38 281 C37.67 282.32 37.34 283.64 37 285 C36.34 285 35.68 285 35 285 C35 285.66 35 286.32 35 287 C34.34 287 33.68 287 33 287 C33 287.66 33 288.32 33 289 C32.34 289 31.68 289 31 289 C31 289.66 31 290.32 31 291 C29.68 291.33 28.36 291.66 27 292 C26.67 293.32 26.34 294.64 26 296 C25.34 296 24.68 296 24 296 C24 296.66 24 297.32 24 298 C23.34 298 22.68 298 22 298 C22 298.66 22 299.32 22 300 C21.34 300 20.68 300 20 300 C20 300.66 20 301.32 20 302 C18.68 302.33 17.36 302.66 16 303 C15.67 304.32 15.34 305.64 15 307 C14.34 307 13.68 307 13 307 C13 307.66 13 308.32 13 309 C12.34 309 11.68 309 11 309 C11 309.66 11 310.32 11 311 C10.34 311 9.68 311 9 311 C9 311.66 9 312.32 9 313 C7.68 313.33 6.36 313.66 5 314 C5 314.66 5 315.32 5 316 C3.35 316 1.7 316 0 316 C0 278.05 0 240.1 0 201 C-65.67 201 -131.34 201 -199 201 C-199 200.34 -199 199.68 -199 199 C-199.66 199 -200.32 199 -201 199 C-201 171.94 -201 144.88 -201 117 C-200.34 117 -199.68 117 -199 117 C-199 116.34 -199 115.68 -199 115 C-133.33 115 -67.66 115 0 115 C0 77.05 0 39.1 0 0 Z " fill="#F8F8F8" transform="translate(780,354)"/>
<path d="M0 0 C23.4345342 -0.04666479 46.86906147 -0.0819617 70.30363274 -0.10362434 C81.18404567 -0.11394881 92.06442978 -0.12803144 102.94482422 -0.15087891 C112.42518003 -0.17077703 121.90551497 -0.18370791 131.38589108 -0.18817699 C136.40837824 -0.19079045 141.4308057 -0.19695738 146.45327377 -0.21146011 C151.17604647 -0.22498757 155.89873458 -0.2292325 160.62152481 -0.22621536 C162.35902617 -0.2267677 164.09653023 -0.23077385 165.83401489 -0.23841095 C168.19811374 -0.24829668 170.56188923 -0.24599245 172.92599487 -0.24050903 C173.62053988 -0.24633472 174.31508489 -0.2521604 175.03067672 -0.25816262 C179.77175758 -0.22824242 179.77175758 -0.22824242 182 2 C182.24954766 4.66343069 182.24954766 4.66343069 182.24888897 8.12825775 C182.25348777 9.44424658 182.25808656 10.76023541 182.26282471 12.1161027 C182.25780887 13.59054532 182.25260659 15.06498733 182.24723816 16.53942871 C182.24882499 18.09478028 182.25128733 19.65013116 182.25455457 21.2054801 C182.26099439 25.49552678 182.25487968 29.78547972 182.24679029 34.07552028 C182.24023323 38.69588326 182.2451574 43.31623543 182.24867249 47.93659973 C182.2537237 56.99423235 182.24806132 66.05182856 182.23882218 75.10945666 C182.22845796 85.64736118 182.22850785 96.18525775 182.22899476 106.72316641 C182.22949584 125.5197163 182.22032172 144.31624921 182.20581055 163.11279297 C182.19172223 181.37093414 182.18463974 199.62906035 182.18530273 217.88720703 C182.18534269 219.01164811 182.18538265 220.13608919 182.18542381 221.29460424 C182.18546417 222.41706063 182.18550452 223.53951701 182.1855461 224.69598722 C182.18623526 245.45421162 182.18034978 266.21242963 182.17139288 286.97065195 C182.16837135 294.32403734 182.16731271 301.67742156 182.16686058 309.0308075 C182.16617971 317.98655508 182.16173272 326.94229191 182.15252777 335.89803493 C182.14789835 340.47135213 182.14486847 345.04465554 182.14612198 349.61797523 C182.14721236 353.79873452 182.14372733 357.97946325 182.13647345 362.16021615 C182.13465152 363.67835041 182.13453812 365.1964878 182.13624074 366.7146222 C182.13828884 368.76699609 182.13366318 370.81937349 182.12863445 372.87174225 C182.12793003 374.01513518 182.1272256 375.15852811 182.12649983 376.33656931 C182 379 182 379 181 381 C163.51 381 146.02 381 128 381 C128 274.08 128 167.16 128 57 C86.09 57 44.18 57 1 57 C1 56.34 1 55.68 1 55 C0.01 55 -0.98 55 -2 55 C-2 37.51 -2 20.02 -2 2 C-1.34 2 -0.68 2 0 2 C0 1.34 0 0.68 0 0 Z " fill="#FEFEFD" transform="translate(550,57)"/>
<path d="M0 0 C17.82 0 35.64 0 54 0 C54.02258636 44.42649282 54.04049878 88.85298426 54.05106533 133.27948167 C54.0523161 138.51932894 54.05361042 143.75917619 54.05493164 148.99902344 C54.05532511 150.56382334 54.05532511 150.56382334 54.05572652 152.16023536 C54.06008292 169.07208597 54.0679703 185.9839332 54.0771528 202.8957818 C54.08649017 220.23696154 54.09205579 237.5781395 54.09408849 254.91932166 C54.09546355 265.62771058 54.09981318 276.33608994 54.10791647 287.04447593 C54.11318496 294.37840315 54.11480406 301.7123254 54.11350138 309.04625438 C54.11285816 313.28336625 54.11387369 317.52046135 54.11920547 321.75757027 C54.12404458 325.63123581 54.12433525 329.5048732 54.12089889 333.37853999 C54.12047371 334.78502714 54.12176515 336.19151599 54.12488318 337.59799974 C54.12885649 339.49980977 54.12615239 341.40163035 54.12304783 343.303442 C54.12342755 344.36286172 54.12380727 345.42228144 54.1241985 346.51380479 C54 349 54 349 53 351 C-6.73 351 -66.46 351 -128 351 C-128 350.34 -128 349.68 -128 349 C-128.66 349 -129.32 349 -130 349 C-130.07587458 341.77350568 -130.12852551 334.54711351 -130.16479492 327.3203125 C-130.17990988 324.86031252 -130.20040227 322.40033959 -130.22631836 319.94042969 C-130.2625823 316.41073948 -130.27969914 312.88140456 -130.29296875 309.3515625 C-130.30845261 308.24632233 -130.32393646 307.14108215 -130.33988953 306.00234985 C-130.34011612 304.98144257 -130.34034271 303.96053528 -130.34057617 302.90869141 C-130.34723801 302.00712311 -130.35389984 301.10555481 -130.36076355 300.17666626 C-130.24171158 299.45836639 -130.12265961 298.74006653 -130 298 C-93.94022057 273.96014705 -43.33846124 296 0 296 C0 198.32 0 100.64 0 0 Z " fill="#F7F7F7" transform="translate(678,586)"/>
<path d="M0 0 C19.93144943 -0.02332743 39.86289611 -0.04097841 59.79435635 -0.05181217 C69.0482116 -0.05697546 78.30205838 -0.06401878 87.5559082 -0.07543945 C95.61856198 -0.08538529 103.68120963 -0.09185319 111.74386936 -0.09408849 C116.01568521 -0.09539577 120.28748351 -0.0984827 124.55929375 -0.10573006 C128.57535956 -0.11248869 132.59140051 -0.11461728 136.60747147 -0.11310768 C138.08576785 -0.11338408 139.56406501 -0.11539013 141.04235649 -0.11920547 C143.05198957 -0.12414021 145.06163581 -0.12239814 147.0712738 -0.12025452 C148.19862662 -0.12117631 149.32597944 -0.1220981 150.48749447 -0.12304783 C153 0 153 0 154 1 C154.25 3.4375 154.25 3.4375 154 6 C150.62851015 8.2476599 148.0762778 8.79798837 144.125 9.625 C142.30355469 10.01558594 142.30355469 10.01558594 140.4453125 10.4140625 C137.52909158 10.91001844 134.94382903 11.12312593 132 11 C132 11.66 132 12.32 132 13 C130.02 13 128.04 13 126 13 C126 13.66 126 14.32 126 15 C123.69 15 121.38 15 119 15 C119 15.66 119 16.32 119 17 C117.02 17 115.04 17 113 17 C113 17.66 113 18.32 113 19 C108.9472484 19.98248524 105.16138263 20.08159574 101 20 C101 20.66 101 21.32 101 22 C99.02 22 97.04 22 95 22 C95 22.66 95 23.32 95 24 C92.69 24 90.38 24 88 24 C88 24.66 88 25.32 88 26 C86.02 26 84.04 26 82 26 C82 26.66 82 27.32 82 28 C79.69 28 77.38 28 75 28 C75 28.66 75 29.32 75 30 C71.37 30.33 67.74 30.66 64 31 C64 31.66 64 32.32 64 33 C61.69 33 59.38 33 57 33 C57 33.66 57 34.32 57 35 C55.02 35 53.04 35 51 35 C51 35.66 51 36.32 51 37 C48.69 37 46.38 37 44 37 C44 37.66 44 38.32 44 39 C42.02 39 40.04 39 38 39 C38 39.66 38 40.32 38 41 C37.14535156 41.13277344 36.29070312 41.26554687 35.41015625 41.40234375 C34.30542969 41.57894531 33.20070312 41.75554687 32.0625 41.9375 C30.96035156 42.11152344 29.85820313 42.28554687 28.72265625 42.46484375 C26.09573071 42.71845136 26.09573071 42.71845136 25 44 C23.33382885 44.04063832 21.66611905 44.042721 20 44 C20 44.66 20 45.32 20 46 C17.69 46 15.38 46 13 46 C13 46.66 13 47.32 13 48 C11.02 48 9.04 48 7 48 C7 48.66 7 49.32 7 50 C4.03 50 1.06 50 -2 50 C-2 34.16 -2 18.32 -2 2 C-1.34 2 -0.68 2 0 2 C0 1.34 0 0.68 0 0 Z " fill="#E4E4E3" transform="translate(83,57)"/>
<path d="M0 0 C23.4345342 -0.04666479 46.86906147 -0.0819617 70.30363274 -0.10362434 C81.18404567 -0.11394881 92.06442978 -0.12803144 102.94482422 -0.15087891 C112.42518003 -0.17077703 121.90551497 -0.18370791 131.38589108 -0.18817699 C136.40837824 -0.19079045 141.4308057 -0.19695738 146.45327377 -0.21146011 C151.17604647 -0.22498757 155.89873458 -0.2292325 160.62152481 -0.22621536 C162.35902617 -0.2267677 164.09653023 -0.23077385 165.83401489 -0.23841095 C168.19811374 -0.24829668 170.56188923 -0.24599245 172.92599487 -0.24050903 C173.62053988 -0.24633472 174.31508489 -0.2521604 175.03067672 -0.25816262 C179.77175758 -0.22824242 179.77175758 -0.22824242 182 2 C182.24954766 4.66343069 182.24954766 4.66343069 182.24888897 8.12825775 C182.25348777 9.44424658 182.25808656 10.76023541 182.26282471 12.1161027 C182.25780887 13.59054532 182.25260659 15.06498733 182.24723816 16.53942871 C182.24882499 18.09478028 182.25128733 19.65013116 182.25455457 21.2054801 C182.26099439 25.49552678 182.25487968 29.78547972 182.24679029 34.07552028 C182.24023323 38.69588326 182.2451574 43.31623543 182.24867249 47.93659973 C182.2537237 56.99423235 182.24806132 66.05182856 182.23882218 75.10945666 C182.22845796 85.64736118 182.22850785 96.18525775 182.22899476 106.72316641 C182.22949584 125.5197163 182.22032172 144.31624921 182.20581055 163.11279297 C182.19172223 181.37093414 182.18463974 199.62906035 182.18530273 217.88720703 C182.18534269 219.01164811 182.18538265 220.13608919 182.18542381 221.29460424 C182.18546417 222.41706063 182.18550452 223.53951701 182.1855461 224.69598722 C182.18623526 245.45421162 182.18034978 266.21242963 182.17139288 286.97065195 C182.16837135 294.32403734 182.16731271 301.67742156 182.16686058 309.0308075 C182.16617971 317.98655508 182.16173272 326.94229191 182.15252777 335.89803493 C182.14789835 340.47135213 182.14486847 345.04465554 182.14612198 349.61797523 C182.14721236 353.79873452 182.14372733 357.97946325 182.13647345 362.16021615 C182.13465152 363.67835041 182.13453812 365.1964878 182.13624074 366.7146222 C182.13828884 368.76699609 182.13366318 370.81937349 182.12863445 372.87174225 C182.12793003 374.01513518 182.1272256 375.15852811 182.12649983 376.33656931 C182 379 182 379 181 381 C163.51 381 146.02 381 128 381 C128 274.08 128 167.16 128 57 C86.09 57 44.18 57 1 57 C1 56.34 1 55.68 1 55 C0.01 55 -0.98 55 -2 55 C-2 37.51 -2 20.02 -2 2 C-1.34 2 -0.68 2 0 2 C0 1.34 0 0.68 0 0 Z M-1 3 C-1 19.83 -1 36.66 -1 54 C-0.01 54 0.98 54 2 54 C2 54.66 2 55.32 2 56 C43.91 56 85.82 56 129 56 C129 162.92 129 269.84 129 380 C145.5 380 162 380 179 380 C179 379.34 179 378.68 179 378 C179.66 378 180.32 378 181 378 C181 254.25 181 130.5 181 3 C178.02270767 1.51135383 175.33825547 1.87397402 172.01538086 1.87301636 C171.28821082 1.87145637 170.56104078 1.86989638 169.81183529 1.86828911 C167.3628178 1.86428428 164.91386175 1.86746677 162.46484375 1.87060547 C160.71412113 1.8692512 158.96339879 1.86747112 157.212677 1.86529541 C152.44834321 1.86072414 147.68403099 1.86250939 142.91969681 1.8656745 C137.9424763 1.86819967 132.96525769 1.86586012 127.98803711 1.86428833 C119.62841458 1.8624671 111.26880088 1.86487174 102.90917969 1.86962891 C93.23322435 1.87507144 83.55729008 1.87330875 73.88133526 1.8678025 C65.58578911 1.86327006 57.29024932 1.86262147 48.99470234 1.86524117 C44.034866 1.86680322 39.07503957 1.86699967 34.11520386 1.86370468 C29.45315435 1.86082408 24.7911321 1.86280517 20.12908554 1.86859894 C18.41416342 1.86992551 16.69923901 1.86953414 14.98431778 1.86733627 C12.65105352 1.86462077 10.3178777 1.86801084 7.98461914 1.87301636 C6.67642715 1.87339338 5.36823517 1.87377041 4.020401 1.87415886 C1.07829046 1.79019098 1.07829046 1.79019098 -1 3 Z " fill="#686868" transform="translate(550,57)"/>
<path d="M0 0 C2.64 0 5.28 0 8 0 C8 0.33 8 0.66 8 1 C5.69 1 3.38 1 1 1 C1 1.66 1 2.32 1 3 C-1.31 3 -3.62 3 -6 3 C-6 3.66 -6 4.32 -6 5 C-7.65 5 -9.3 5 -11 5 C-11 5.66 -11 6.32 -11 7 C-12.98 7 -14.96 7 -17 7 C-17 7.66 -17 8.32 -17 9 C-22.08086796 9.84681133 -26.84828377 10.09038099 -32 10 C-32 10.66 -32 11.32 -32 12 C-33.65 12 -35.3 12 -37 12 C-37 12.66 -37 13.32 -37 14 C-38.98 14 -40.96 14 -43 14 C-43 14.66 -43 15.32 -43 16 C-45.31 16 -47.62 16 -50 16 C-50 16.66 -50 17.32 -50 18 C-56.435 18.495 -56.435 18.495 -63 19 C-63 19.66 -63 20.32 -63 21 C-65.31 21 -67.62 21 -70 21 C-70 21.66 -70 22.32 -70 23 C-71.32 23 -72.64 23 -74 23 C-74 281.39 -74 539.78 -74 806 C-71.03 806.33 -68.06 806.66 -65 807 C-64.67 807.33 -64.34 807.66 -64 808 C-61.67182036 808.36760731 -59.3381615 808.70241581 -57 809 C-57 809.66 -57 810.32 -57 811 C-54.69 811 -52.38 811 -50 811 C-50 811.66 -50 812.32 -50 813 C-48.4840625 812.938125 -48.4840625 812.938125 -46.9375 812.875 C-42.81923948 813.00573843 -39.88169467 813.73250786 -36 815 C-36 815.33 -36 815.66 -36 816 C-38.33294775 816.04241723 -40.66702567 816.04092937 -43 816 C-43.33 815.67 -43.66 815.34 -44 815 C-46.32817964 814.63239269 -48.6618385 814.29758419 -51 814 C-51 813.34 -51 812.68 -51 812 C-53.31 812 -55.62 812 -58 812 C-58 811.34 -58 810.68 -58 810 C-59.7015625 810.0928125 -59.7015625 810.0928125 -61.4375 810.1875 C-66 810 -66 810 -75 807 C-75 547.95 -75 288.9 -75 22 C-73.68 22 -72.36 22 -71 22 C-71 21.34 -71 20.68 -71 20 C-68.69 20 -66.38 20 -64 20 C-64 19.34 -64 18.68 -64 18 C-50.3667426 14.55580866 -50.3667426 14.55580866 -44 15 C-44 14.34 -44 13.68 -44 13 C-42.02 13 -40.04 13 -38 13 C-38 12.34 -38 11.68 -38 11 C-36.35 11 -34.7 11 -33 11 C-33 10.34 -33 9.68 -33 9 C-30.36 9 -27.72 9 -25 9 C-25 8.34 -25 7.68 -25 7 C-23.4221875 6.814375 -23.4221875 6.814375 -21.8125 6.625 C-18.13854565 6.17182759 -18.13854565 6.17182759 -15.4375 4.9375 C-12.5087509 3.81105804 -10.11110233 3.85529757 -7 4 C-7 3.34 -7 2.68 -7 2 C-4.69 2 -2.38 2 0 2 C0 1.34 0 0.68 0 0 Z " fill="#323232" transform="translate(156,105)"/>
<path d="M0 0 C0.99 0 1.98 0 3 0 C3 27.06 3 54.12 3 82 C2.01 82 1.02 82 0 82 C0 54.94 0 27.88 0 0 Z " fill="#A9A9A9" transform="translate(579,471)"/>
<path d="M0 0 C2.64 0 5.28 0 8 0 C8 0.33 8 0.66 8 1 C5.69 1 3.38 1 1 1 C1 1.66 1 2.32 1 3 C-0.65 3 -2.3 3 -4 3 C-4 3.66 -4 4.32 -4 5 C-6.31 5 -8.62 5 -11 5 C-11 5.66 -11 6.32 -11 7 C-12.98 7 -14.96 7 -17 7 C-17 7.66 -17 8.32 -17 9 C-23.435 9.495 -23.435 9.495 -30 10 C-30 10.66 -30 11.32 -30 12 C-32.31 12 -34.62 12 -37 12 C-37 12.66 -37 13.32 -37 14 C-38.98 14 -40.96 14 -43 14 C-43 14.66 -43 15.32 -43 16 C-45.31 16 -47.62 16 -50 16 C-50 16.66 -50 17.32 -50 18 C-53.63 18.33 -57.26 18.66 -61 19 C-61 19.66 -61 20.32 -61 21 C-62.98 21 -64.96 21 -67 21 C-67 20.67 -67 20.34 -67 20 C-65.35 20 -63.7 20 -62 20 C-62 19.34 -62 18.68 -62 18 C-59.66836622 17.32741333 -57.3347961 16.66152556 -55 16 C-54.34 15.79375 -53.68 15.5875 -53 15.375 C-49.99935943 14.81237989 -47.04286083 14.94148345 -44 15 C-44 14.34 -44 13.68 -44 13 C-42.02 13 -40.04 13 -38 13 C-38 12.34 -38 11.68 -38 11 C-35.69 11 -33.38 11 -31 11 C-31 10.34 -31 9.68 -31 9 C-29.02 9 -27.04 9 -25 9 C-25 8.34 -25 7.68 -25 7 C-24.38511719 6.86722656 -23.77023438 6.73445313 -23.13671875 6.59765625 C-22.32847656 6.42105469 -21.52023438 6.24445313 -20.6875 6.0625 C-19.48673828 5.80146484 -19.48673828 5.80146484 -18.26171875 5.53515625 C-15.854599 5.00113841 -15.854599 5.00113841 -13 4 C-11.60560336 3.93334624 -10.20830125 3.91461801 -8.8125 3.9375 C-6.9253125 3.9684375 -6.9253125 3.9684375 -5 4 C-5 3.34 -5 2.68 -5 2 C-3.35 2 -1.7 2 0 2 C0 1.34 0 0.68 0 0 Z " fill="#444444" transform="translate(231,83)"/>
<path d="M0 0 C0.33 0 0.66 0 1 0 C1 17.82 1 35.64 1 54 C3.97 54.33 6.94 54.66 10 55 C10.33 55.33 10.66 55.66 11 56 C13.32817964 56.36760731 15.6618385 56.70241581 18 57 C18 57.66 18 58.32 18 59 C20.31 59 22.62 59 25 59 C25 59.66 25 60.32 25 61 C26.5159375 60.938125 26.5159375 60.938125 28.0625 60.875 C32.18076052 61.00573843 35.11830533 61.73250786 39 63 C39 63.33 39 63.66 39 64 C36.66705225 64.04241723 34.33297433 64.04092937 32 64 C31.505 63.505 31.505 63.505 31 63 C28.67182036 62.63239269 26.3381615 62.29758419 24 62 C24 61.34 24 60.68 24 60 C21.69 60 19.38 60 17 60 C17 59.34 17 58.68 17 58 C15.865625 58.061875 14.73125 58.12375 13.5625 58.1875 C9 58 9 58 0 55 C0 36.85 0 18.7 0 0 Z " fill="#3F3F3F" transform="translate(81,857)"/>
<path d="M0 0 C0 0.33 0 0.66 0 1 C-1.98 1 -3.96 1 -6 1 C-6 1.66 -6 2.32 -6 3 C-7.98 3 -9.96 3 -12 3 C-12 3.66 -12 4.32 -12 5 C-13.65 5 -15.3 5 -17 5 C-17 5.66 -17 6.32 -17 7 C-21.62 7.33 -26.24 7.66 -31 8 C-31 8.66 -31 9.32 -31 10 C-33.31 10 -35.62 10 -38 10 C-38 10.66 -38 11.32 -38 12 C-42.17737474 13.59138085 -45.53160785 14.21278058 -50 14 C-50 14.66 -50 15.32 -50 16 C-52.31 16 -54.62 16 -57 16 C-57 15.34 -57 14.68 -57 14 C-51.17251381 11.57188075 -45.2242509 11.38272093 -39 11 C-39 10.34 -39 9.68 -39 9 C-36.69 9 -34.38 9 -32 9 C-32 8.34 -32 7.68 -32 7 C-30.02 7 -28.04 7 -26 7 C-26 6.34 -26 5.68 -26 5 C-23.69 5 -21.38 5 -19 5 C-19 4.34 -19 3.68 -19 3 C-16.66836622 2.32741333 -14.3347961 1.66152556 -12 1 C-11.0409375 0.690625 -11.0409375 0.690625 -10.0625 0.375 C-6.71374413 -0.2338647 -3.39854178 -0.05664236 0 0 Z " fill="#373737" transform="translate(486,12)"/>
<path d="M0 0 C2.64 0 5.28 0 8 0 C8 0.33 8 0.66 8 1 C5.69 1 3.38 1 1 1 C1 1.66 1 2.32 1 3 C-1.31 3 -3.62 3 -6 3 C-6 3.66 -6 4.32 -6 5 C-7.65 5 -9.3 5 -11 5 C-11 5.66 -11 6.32 -11 7 C-12.98 7 -14.96 7 -17 7 C-17 7.66 -17 8.32 -17 9 C-22.08086796 9.84681133 -26.84828377 10.09038099 -32 10 C-32 10.66 -32 11.32 -32 12 C-33.65 12 -35.3 12 -37 12 C-37 12.66 -37 13.32 -37 14 C-38.98 14 -40.96 14 -43 14 C-43 14.66 -43 15.32 -43 16 C-45.31 16 -47.62 16 -50 16 C-50 16.66 -50 17.32 -50 18 C-53.96 18.495 -53.96 18.495 -58 19 C-57.505 17.515 -57.505 17.515 -57 16 C-50.565 15.505 -50.565 15.505 -44 15 C-44 14.34 -44 13.68 -44 13 C-42.02 13 -40.04 13 -38 13 C-38 12.34 -38 11.68 -38 11 C-36.35 11 -34.7 11 -33 11 C-33 10.34 -33 9.68 -33 9 C-30.36 9 -27.72 9 -25 9 C-25 8.34 -25 7.68 -25 7 C-23.4221875 6.814375 -23.4221875 6.814375 -21.8125 6.625 C-18.13854565 6.17182759 -18.13854565 6.17182759 -15.4375 4.9375 C-12.5087509 3.81105804 -10.11110233 3.85529757 -7 4 C-7 3.34 -7 2.68 -7 2 C-4.69 2 -2.38 2 0 2 C0 1.34 0 0.68 0 0 Z " fill="#555555" transform="translate(156,105)"/>
<path d="M0 0 C2.47990255 0.30737661 4.95880735 0.62064083 7.4375 0.9375 C8.49807617 1.06801758 8.49807617 1.06801758 9.58007812 1.20117188 C14.88671875 1.88671875 14.88671875 1.88671875 16 3 C17.95124305 3.23150341 19.90268753 3.46153897 21.85546875 3.6796875 C24.7046815 4.10525297 27.30890166 4.99083812 30 6 C30 6.66 30 7.32 30 8 C34.95 8.33 39.9 8.66 45 9 C45 9.66 45 10.32 45 11 C47.31 11 49.62 11 52 11 C52 11.66 52 12.32 52 13 C54.31 13 56.62 13 59 13 C59 13.66 59 14.32 59 15 C61.31 15 63.62 15 66 15 C66 15.33 66 15.66 66 16 C63.36 16 60.72 16 58 16 C58 15.34 58 14.68 58 14 C51.07 13.505 51.07 13.505 44 13 C44 12.34 44 11.68 44 11 C42.2984375 11.0309375 42.2984375 11.0309375 40.5625 11.0625 C37 11 37 11 36 10 C33.67182036 9.63239269 31.3381615 9.29758419 29 9 C29 8.34 29 7.68 29 7 C28.195625 7.020625 27.39125 7.04125 26.5625 7.0625 C24 7 24 7 23 6 C21.21625948 5.6450416 19.42211043 5.34199918 17.625 5.0625 C11.73361869 4.12298715 5.8660562 3.08545134 0 2 C0 1.34 0 0.68 0 0 Z " fill="#5F5F5F" transform="translate(162,932)"/>
<path d="M0 0 C5.15171623 -0.09038099 9.91913204 0.15318867 15 1 C15 1.66 15 2.32 15 3 C17.31 3 19.62 3 22 3 C22 3.66 22 4.32 22 5 C24.64 5 27.28 5 30 5 C30 5.66 30 6.32 30 7 C31.65 7 33.3 7 35 7 C35 7.66 35 8.32 35 9 C36.175625 8.979375 37.35125 8.95875 38.5625 8.9375 C42.47413467 8.93052739 46.14497944 9.35749657 50 10 C50 10.66 50 11.32 50 12 C52.31 12 54.62 12 57 12 C57 12.66 57 13.32 57 14 C59.31 14 61.62 14 64 14 C63.67 14.66 63.34 15.32 63 16 C59.51964536 15.36046095 56.0409485 14.71232005 52.5625 14.0625 C51.07266602 13.78889648 51.07266602 13.78889648 49.55273438 13.50976562 C48.60849609 13.33251953 47.66425781 13.15527344 46.69140625 12.97265625 C45.81685791 12.81031494 44.94230957 12.64797363 44.04125977 12.48071289 C42 12 42 12 41 11 C38.67182036 10.63239269 36.3381615 10.29758419 34 10 C34 9.34 34 8.68 34 8 C32.35 8 30.7 8 29 8 C29 7.34 29 6.68 29 6 C26.36 6 23.72 6 21 6 C21 5.34 21 4.68 21 4 C19.49759766 4.04640625 19.49759766 4.04640625 17.96484375 4.09375 C13.95649757 3.99897137 10.46487567 3.39197158 6.5625 2.5 C5.32628906 2.2215625 4.09007812 1.943125 2.81640625 1.65625 C1.88699219 1.4396875 0.95757812 1.223125 0 1 C0 0.67 0 0.34 0 0 Z " fill="#535352" transform="translate(457,1008)"/>
<path d="M0 0 C1.98 0 3.96 0 6 0 C6 0.33 6 0.66 6 1 C4.35 1 2.7 1 1 1 C1 1.66 1 2.32 1 3 C-1.31 3 -3.62 3 -6 3 C-6 3.66 -6 4.32 -6 5 C-7.98 5 -9.96 5 -12 5 C-12 5.66 -12 6.32 -12 7 C-13.65 7 -15.3 7 -17 7 C-17 7.66 -17 8.32 -17 9 C-23.435 9.495 -23.435 9.495 -30 10 C-30 10.66 -30 11.32 -30 12 C-32.64 12.33 -35.28 12.66 -38 13 C-38 12.34 -38 11.68 -38 11 C-35.69 11 -33.38 11 -31 11 C-31 10.34 -31 9.68 -31 9 C-25.17251381 6.57188075 -19.2242509 6.38272093 -13 6 C-13 5.34 -13 4.68 -13 4 C-11.02 4 -9.04 4 -7 4 C-7 3.34 -7 2.68 -7 2 C-4.69 2 -2.38 2 0 2 C0 1.34 0 0.68 0 0 Z " fill="#4F4F4F" transform="translate(308,61)"/>
<path d="M0 0 C2.64 0 5.28 0 8 0 C8 0.33 8 0.66 8 1 C5.69 1 3.38 1 1 1 C1 1.66 1 2.32 1 3 C-0.65 3 -2.3 3 -4 3 C-4 3.66 -4 4.32 -4 5 C-6.31 5 -8.62 5 -11 5 C-11 5.66 -11 6.32 -11 7 C-12.98 7 -14.96 7 -17 7 C-17 7.66 -17 8.32 -17 9 C-19.64 9.33 -22.28 9.66 -25 10 C-25 9.01 -25 8.02 -25 7 C-24.38511719 6.86722656 -23.77023438 6.73445313 -23.13671875 6.59765625 C-22.32847656 6.42105469 -21.52023438 6.24445313 -20.6875 6.0625 C-19.88699219 5.88847656 -19.08648437 5.71445313 -18.26171875 5.53515625 C-15.854599 5.00113841 -15.854599 5.00113841 -13 4 C-11.60560336 3.93334624 -10.20830125 3.91461801 -8.8125 3.9375 C-6.9253125 3.9684375 -6.9253125 3.9684375 -5 4 C-5 3.34 -5 2.68 -5 2 C-3.35 2 -1.7 2 0 2 C0 1.34 0 0.68 0 0 Z " fill="#585858" transform="translate(231,83)"/>
<path d="M0 0 C2.64 0 5.28 0 8 0 C8 0.33 8 0.66 8 1 C6.02 1 4.04 1 2 1 C2 1.66 2 2.32 2 3 C0.02 3 -1.96 3 -4 3 C-4 3.66 -4 4.32 -4 5 C-5.65 5 -7.3 5 -9 5 C-9 5.66 -9 6.32 -9 7 C-13.62 7.33 -18.24 7.66 -23 8 C-23 7.67 -23 7.34 -23 7 C-21.35 7 -19.7 7 -18 7 C-18 6.34 -18 5.68 -18 5 C-16.453125 4.814375 -16.453125 4.814375 -14.875 4.625 C-11.07626416 4.12298625 -11.07626416 4.12298625 -7.875 2.9375 C-5.04897244 2.01596927 -2.94528126 1.82674816 0 2 C0 1.34 0 0.68 0 0 Z " fill="#5E5E5E" transform="translate(370,43)"/>
<path d="M0 0 C0.495 0.99 0.495 0.99 1 2 C-0.65 2 -2.3 2 -4 2 C-4 2.66 -4 3.32 -4 4 C-6.31 4 -8.62 4 -11 4 C-11 4.66 -11 5.32 -11 6 C-13.31 6 -15.62 6 -18 6 C-18 6.66 -18 7.32 -18 8 C-22.62 8.66 -27.24 9.32 -32 10 C-32 9.34 -32 8.68 -32 8 C-29.69 8 -27.38 8 -25 8 C-25 7.34 -25 6.68 -25 6 C-20.59085217 4.89771304 -16.51617599 4.92345464 -12 5 C-12 4.34 -12 3.68 -12 3 C-9.69 3 -7.38 3 -5 3 C-5 2.34 -5 1.68 -5 1 C-3.35 0.67 -1.7 0.34 0 0 Z " fill="#555555" transform="translate(346,51)"/>
<path d="M0 0 C0.33 0.66 0.66 1.32 1 2 C-0.65 2 -2.3 2 -4 2 C-4 2.66 -4 3.32 -4 4 C-6.31 4 -8.62 4 -11 4 C-11 4.66 -11 5.32 -11 6 C-15.76307437 6.95261487 -20.1666528 7.08333357 -25 7 C-25 6.67 -25 6.34 -25 6 C-22.69 6 -20.38 6 -18 6 C-18 5.34 -18 4.68 -18 4 C-12.06 2.68 -6.12 1.36 0 0 Z " fill="#575857" transform="translate(522,0)"/>
<path d="M0 0 C0 0.33 0 0.66 0 1 C-1.98 1 -3.96 1 -6 1 C-6 1.66 -6 2.32 -6 3 C-7.98 3 -9.96 3 -12 3 C-12 3.66 -12 4.32 -12 5 C-13.65 5 -15.3 5 -17 5 C-17 5.66 -17 6.32 -17 7 C-19.64 7 -22.28 7 -25 7 C-25 6.67 -25 6.34 -25 6 C-22.69 6 -20.38 6 -18 6 C-18 5.34 -18 4.68 -18 4 C-16.35 4 -14.7 4 -13 4 C-12.67 3.01 -12.34 2.02 -12 1 C-8.32433144 -0.61729417 -3.92760325 -0.06546005 0 0 Z " fill="#828282" transform="translate(486,12)"/>
<path d="M0 0 C2.39706699 0.28342679 4.79231083 0.57643688 7.1875 0.875 C7.86103516 0.95363281 8.53457031 1.03226563 9.22851562 1.11328125 C13.10327484 1.60471413 16.45084723 2.35980901 20 4 C20 4.33 20 4.66 20 5 C13.25390382 4.33644956 6.65551466 3.28134207 0 2 C0 1.34 0 0.68 0 0 Z " fill="#444444" transform="translate(162,932)"/>
<path d="M0 0 C0 0.33 0 0.66 0 1 C-1.98 1 -3.96 1 -6 1 C-6 1.66 -6 2.32 -6 3 C-8.31 3 -10.62 3 -13 3 C-13 2.34 -13 1.68 -13 1 C-8.59085217 -0.10228696 -4.51617599 -0.07654536 0 0 Z " fill="#6F6E6E" transform="translate(442,25)"/>
</svg>
